<svg xmlns="http://www.w3.org/2000/svg" xmlns:xlink="http://www.w3.org/1999/xlink" width="500" zoomAndPan="magnify" viewBox="0 0 375 60" height="80" preserveAspectRatio="xMidYMid meet" version="1.0"><defs><g/><clipPath id="cac705a22b"><path d="M 36.707031 4.941406 L 81.707031 4.941406 L 81.707031 54.441406 L 36.707031 54.441406 Z M 36.707031 4.941406 " clip-rule="nonzero"/></clipPath></defs><g clip-path="url(#cac705a22b)"><path fill="#ff8c42" d="M 76.421875 49.125 C 76.367188 47.144531 75.625 45.390625 74.214844 43.914062 C 73.652344 43.324219 73.054688 42.742188 72.472656 42.183594 C 71.871094 41.601562 71.25 41 70.664062 40.378906 C 69.238281 38.878906 68.230469 37.042969 67.664062 34.914062 C 67.601562 34.679688 67.539062 34.441406 67.480469 34.207031 C 67.222656 33.222656 66.960938 32.203125 66.585938 31.265625 C 65.4375 28.394531 63.316406 26.785156 60.28125 26.492188 C 59.980469 26.460938 59.683594 26.445312 59.390625 26.445312 C 57.21875 26.445312 55.371094 27.265625 53.886719 28.894531 C 52.4375 30.476562 51.902344 32.453125 51.570312 34.179688 C 51.144531 36.375 50.40625 38.101562 49.308594 39.460938 C 48.175781 40.859375 46.917969 42.121094 45.949219 43.0625 C 44.089844 44.875 43.105469 46.65625 42.859375 48.675781 C 42.699219 49.96875 42.953125 51.050781 43.636719 51.976562 C 44.355469 52.949219 45.414062 53.589844 46.878906 53.933594 C 48.300781 54.265625 49.46875 54.285156 50.554688 53.992188 C 51.011719 53.871094 51.824219 53.722656 52.484375 53.609375 C 53.070312 53.507812 53.496094 53 53.496094 52.402344 L 53.496094 46.179688 C 53.496094 42.964844 56.128906 40.300781 59.347656 40.324219 C 60.933594 40.332031 62.371094 40.980469 63.410156 42.023438 C 64.460938 43.074219 65.113281 44.523438 65.113281 46.128906 L 65.113281 52.167969 C 65.113281 52.792969 65.582031 53.320312 66.207031 53.382812 C 66.324219 53.394531 66.441406 53.410156 66.558594 53.421875 C 66.910156 53.457031 67.253906 53.527344 67.585938 53.59375 C 67.714844 53.617188 67.84375 53.644531 67.972656 53.667969 C 68.546875 53.773438 69.117188 53.878906 69.6875 53.984375 L 70.335938 54.101562 C 71.820312 53.976562 72.980469 53.671875 73.988281 53.136719 C 75.652344 52.25 76.46875 50.902344 76.421875 49.125 Z M 63.710938 48.351562 C 63.710938 47.832031 63.292969 47.414062 62.773438 47.414062 C 62.257812 47.414062 61.839844 47.832031 61.839844 48.351562 C 61.839844 48.867188 62.257812 49.285156 62.773438 49.285156 C 63.292969 49.285156 63.710938 48.867188 63.710938 48.351562 Z M 47.117188 19.695312 C 45.199219 17.953125 43.6875 17.21875 41.902344 17.164062 C 41.839844 17.160156 41.78125 17.160156 41.722656 17.160156 C 39.945312 17.160156 38.503906 17.988281 37.65625 19.484375 C 36.921875 20.789062 36.710938 22.292969 37.03125 23.953125 C 37.371094 25.710938 38.164062 27.234375 39.457031 28.617188 C 41.003906 30.273438 42.753906 31.101562 44.804688 31.152344 C 46.25 31.183594 47.5 30.621094 48.417969 29.515625 C 49.183594 28.59375 49.59375 27.472656 49.632812 26.183594 C 49.714844 23.699219 48.796875 21.335938 47.117188 19.695312 Z M 80.976562 19.234375 C 80.105469 17.613281 78.65625 16.71875 76.898438 16.71875 C 76.878906 16.71875 76.863281 16.71875 76.84375 16.71875 C 75.347656 16.734375 73.941406 17.304688 72.664062 18.414062 C 71.3125 19.585938 70.386719 21.035156 69.835938 22.84375 C 69.175781 25.011719 69.335938 26.941406 70.316406 28.742188 C 71.007812 30.011719 72.125 30.8125 73.539062 31.054688 C 74.71875 31.257812 75.894531 31.050781 77.03125 30.441406 C 79.226562 29.269531 80.816406 27.292969 81.394531 25.019531 C 81.945312 22.484375 81.824219 20.808594 80.976562 19.234375 Z M 63.609375 17.542969 C 62.890625 18.613281 61.953125 19.347656 60.8125 19.722656 C 59.449219 20.171875 58.089844 19.988281 56.882812 19.195312 C 55.167969 18.066406 54.125 16.4375 53.691406 14.210938 C 53.328125 12.355469 53.464844 10.644531 54.105469 8.972656 C 54.710938 7.394531 55.6875 6.230469 57 5.515625 C 57.703125 5.132812 58.4375 4.9375 59.179688 4.9375 C 60.089844 4.9375 60.980469 5.226562 61.832031 5.792969 C 63.316406 6.785156 64.210938 8.207031 64.914062 10.707031 C 65.472656 12.984375 64.996094 15.476562 63.609375 17.542969 " fill-opacity="1" fill-rule="nonzero"/></g><g fill="#222222" fill-opacity="1"><g transform="translate(97.731131, 33.597369)"><g><path d="M 25.140625 -26.34375 L 25.140625 0 L 18.734375 0 L 18.734375 -10.84375 L 8.75 -10.84375 L 8.75 0 L 2.328125 0 L 2.328125 -26.34375 L 8.75 -26.34375 L 8.75 -16.03125 L 18.734375 -16.03125 L 18.734375 -26.34375 Z M 25.140625 -26.34375 "/></g></g></g><g fill="#222222" fill-opacity="1"><g transform="translate(125.534632, 33.597369)"><g><path d="M 14.78125 0.265625 C 12.3125 0.265625 10.039062 -0.304688 7.96875 -1.453125 C 5.90625 -2.609375 4.265625 -4.21875 3.046875 -6.28125 C 1.835938 -8.34375 1.234375 -10.664062 1.234375 -13.25 C 1.234375 -15.820312 1.835938 -18.132812 3.046875 -20.1875 C 4.265625 -22.238281 5.90625 -23.835938 7.96875 -24.984375 C 10.039062 -26.140625 12.3125 -26.71875 14.78125 -26.71875 C 17.257812 -26.71875 19.53125 -26.140625 21.59375 -24.984375 C 23.664062 -23.835938 25.296875 -22.238281 26.484375 -20.1875 C 27.671875 -18.132812 28.265625 -15.820312 28.265625 -13.25 C 28.265625 -10.664062 27.660156 -8.34375 26.453125 -6.28125 C 25.253906 -4.21875 23.628906 -2.609375 21.578125 -1.453125 C 19.523438 -0.304688 17.257812 0.265625 14.78125 0.265625 Z M 14.78125 -5.59375 C 16.882812 -5.59375 18.566406 -6.289062 19.828125 -7.6875 C 21.097656 -9.09375 21.734375 -10.945312 21.734375 -13.25 C 21.734375 -15.570312 21.097656 -17.425781 19.828125 -18.8125 C 18.566406 -20.207031 16.882812 -20.90625 14.78125 -20.90625 C 12.65625 -20.90625 10.960938 -20.21875 9.703125 -18.84375 C 8.441406 -17.46875 7.8125 -15.601562 7.8125 -13.25 C 7.8125 -10.925781 8.441406 -9.066406 9.703125 -7.671875 C 10.960938 -6.285156 12.65625 -5.59375 14.78125 -5.59375 Z M 14.78125 -5.59375 "/></g></g></g><g fill="#222222" fill-opacity="1"><g transform="translate(155.401815, 33.597369)"><g><path d="M 32.171875 -26.34375 L 32.171875 0 L 25.75 0 L 25.75 -15.796875 L 19.859375 0 L 14.671875 0 L 8.75 -15.84375 L 8.75 0 L 2.328125 0 L 2.328125 -26.34375 L 9.90625 -26.34375 L 17.296875 -8.109375 L 24.625 -26.34375 Z M 32.171875 -26.34375 "/></g></g></g><g fill="#222222" fill-opacity="1"><g transform="translate(190.221837, 33.597369)"><g><path d="M 8.75 -21.203125 L 8.75 -15.875 L 17.34375 -15.875 L 17.34375 -10.921875 L 8.75 -10.921875 L 8.75 -5.140625 L 18.46875 -5.140625 L 18.46875 0 L 2.328125 0 L 2.328125 -26.34375 L 18.46875 -26.34375 L 18.46875 -21.203125 Z M 8.75 -21.203125 "/></g></g></g><g fill="#222222" fill-opacity="1"><g transform="translate(210.896246, 33.597369)"><g><path d="M 1.84375 -4.875 L 1.84375 -10.0625 L 13.703125 -27.015625 L 20.875 -27.015625 L 20.875 -10.4375 L 23.9375 -10.4375 L 23.9375 -4.875 L 20.875 -4.875 L 20.875 0 L 14.453125 0 L 14.453125 -4.875 Z M 14.90625 -19.96875 L 8.59375 -10.4375 L 14.90625 -10.4375 Z M 14.90625 -19.96875 "/></g></g></g><g fill="#222222" fill-opacity="1"><g transform="translate(236.673573, 33.597369)"><g><path d="M 21.28125 -26.34375 L 21.28125 -21.203125 L 14.296875 -21.203125 L 14.296875 0 L 7.875 0 L 7.875 -21.203125 L 0.90625 -21.203125 L 0.90625 -26.34375 Z M 21.28125 -26.34375 "/></g></g></g><g fill="#222222" fill-opacity="1"><g transform="translate(259.22405, 33.597369)"><g><path d="M 18.734375 -4.65625 L 8.890625 -4.65625 L 7.3125 0 L 0.59375 0 L 10.140625 -26.34375 L 17.5625 -26.34375 L 27.09375 0 L 20.296875 0 Z M 17.078125 -9.609375 L 13.8125 -19.25 L 10.578125 -9.609375 Z M 17.078125 -9.609375 "/></g></g></g><g fill="#222222" fill-opacity="1"><g transform="translate(287.25267, 33.597369)"><g><path d="M 8.75 -26.34375 L 8.75 0 L 2.328125 0 L 2.328125 -26.34375 Z M 8.75 -26.34375 "/></g></g></g><g fill="#222222" fill-opacity="1"><g transform="translate(298.696801, 33.597369)"><g><path d="M 8.75 -4.953125 L 17.15625 -4.953125 L 17.15625 0 L 2.328125 0 L 2.328125 -26.34375 L 8.75 -26.34375 Z M 8.75 -4.953125 "/></g></g></g><g fill="#222222" fill-opacity="1"><g transform="translate(316.969834, 33.597369)"><g><path d="M 11.859375 0.265625 C 9.929688 0.265625 8.203125 -0.046875 6.671875 -0.671875 C 5.148438 -1.296875 3.929688 -2.222656 3.015625 -3.453125 C 2.109375 -4.679688 1.628906 -6.15625 1.578125 -7.875 L 8.40625 -7.875 C 8.507812 -6.90625 8.847656 -6.160156 9.421875 -5.640625 C 9.992188 -5.128906 10.742188 -4.875 11.671875 -4.875 C 12.617188 -4.875 13.367188 -5.09375 13.921875 -5.53125 C 14.472656 -5.96875 14.75 -6.578125 14.75 -7.359375 C 14.75 -8.003906 14.53125 -8.539062 14.09375 -8.96875 C 13.65625 -9.394531 13.113281 -9.742188 12.46875 -10.015625 C 11.832031 -10.296875 10.929688 -10.609375 9.765625 -10.953125 C 8.054688 -11.484375 6.664062 -12.007812 5.59375 -12.53125 C 4.519531 -13.0625 3.59375 -13.835938 2.8125 -14.859375 C 2.039062 -15.890625 1.65625 -17.226562 1.65625 -18.875 C 1.65625 -21.332031 2.539062 -23.253906 4.3125 -24.640625 C 6.09375 -26.023438 8.410156 -26.71875 11.265625 -26.71875 C 14.160156 -26.71875 16.492188 -26.023438 18.265625 -24.640625 C 20.046875 -23.253906 21 -21.320312 21.125 -18.84375 L 14.1875 -18.84375 C 14.132812 -19.6875 13.820312 -20.351562 13.25 -20.84375 C 12.675781 -21.332031 11.9375 -21.578125 11.03125 -21.578125 C 10.257812 -21.578125 9.632812 -21.367188 9.15625 -20.953125 C 8.675781 -20.546875 8.4375 -19.953125 8.4375 -19.171875 C 8.4375 -18.328125 8.835938 -17.664062 9.640625 -17.1875 C 10.441406 -16.707031 11.695312 -16.195312 13.40625 -15.65625 C 15.101562 -15.070312 16.484375 -14.519531 17.546875 -14 C 18.609375 -13.476562 19.523438 -12.710938 20.296875 -11.703125 C 21.078125 -10.703125 21.46875 -9.414062 21.46875 -7.84375 C 21.46875 -6.34375 21.082031 -4.976562 20.3125 -3.75 C 19.550781 -2.53125 18.445312 -1.554688 17 -0.828125 C 15.550781 -0.0976562 13.835938 0.265625 11.859375 0.265625 Z M 11.859375 0.265625 "/></g></g></g><path stroke-linecap="round" transform="matrix(0, -0.75, 0.75, 0, 90.286645, 58.032055)" fill="none" stroke-linejoin="miter" d="M 0.501073 0.498015 L 74.615659 0.498015 " stroke="#b0b0b0" stroke-width="1" stroke-opacity="1" stroke-miterlimit="4"/><g fill="#555555" fill-opacity="1"><g transform="translate(100.486518, 53.29112)"><g><path d="M 0.890625 0.09375 C 0.753906 0.09375 0.644531 0.0625 0.5625 0 C 0.488281 -0.0625 0.445312 -0.144531 0.4375 -0.25 C 0.425781 -0.351562 0.445312 -0.472656 0.5 -0.609375 L 3.875 -8.296875 C 3.945312 -8.453125 4.035156 -8.566406 4.140625 -8.640625 C 4.242188 -8.710938 4.359375 -8.75 4.484375 -8.75 C 4.609375 -8.75 4.71875 -8.710938 4.8125 -8.640625 C 4.914062 -8.566406 5.003906 -8.453125 5.078125 -8.296875 L 8.46875 -0.609375 C 8.53125 -0.472656 8.550781 -0.351562 8.53125 -0.25 C 8.519531 -0.144531 8.476562 -0.0625 8.40625 0 C 8.332031 0.0625 8.234375 0.09375 8.109375 0.09375 C 7.960938 0.09375 7.84375 0.0546875 7.75 -0.015625 C 7.65625 -0.0976562 7.582031 -0.21875 7.53125 -0.375 L 6.625 -2.46875 L 7.109375 -2.203125 L 1.828125 -2.203125 L 2.328125 -2.46875 L 1.4375 -0.375 C 1.363281 -0.21875 1.285156 -0.0976562 1.203125 -0.015625 C 1.117188 0.0546875 1.015625 0.09375 0.890625 0.09375 Z M 4.46875 -7.484375 L 2.5 -2.828125 L 2.203125 -3.0625 L 6.75 -3.0625 L 6.46875 -2.828125 L 4.5 -7.484375 Z M 4.46875 -7.484375 "/></g></g></g><g fill="#555555" fill-opacity="1"><g transform="translate(112.5047, 53.29112)"><g><path d="M 3.203125 0.109375 C 2.671875 0.109375 2.207031 -0.015625 1.8125 -0.265625 C 1.414062 -0.523438 1.109375 -0.882812 0.890625 -1.34375 C 0.671875 -1.800781 0.5625 -2.347656 0.5625 -2.984375 C 0.5625 -3.617188 0.671875 -4.164062 0.890625 -4.625 C 1.109375 -5.09375 1.414062 -5.453125 1.8125 -5.703125 C 2.207031 -5.953125 2.671875 -6.078125 3.203125 -6.078125 C 3.742188 -6.078125 4.207031 -5.941406 4.59375 -5.671875 C 4.976562 -5.398438 5.234375 -5.035156 5.359375 -4.578125 L 5.234375 -4.578125 L 5.234375 -8.234375 C 5.234375 -8.398438 5.273438 -8.523438 5.359375 -8.609375 C 5.441406 -8.703125 5.566406 -8.75 5.734375 -8.75 C 5.890625 -8.75 6.007812 -8.703125 6.09375 -8.609375 C 6.175781 -8.523438 6.21875 -8.398438 6.21875 -8.234375 L 6.21875 -0.4375 C 6.21875 -0.269531 6.175781 -0.140625 6.09375 -0.046875 C 6.019531 0.046875 5.898438 0.09375 5.734375 0.09375 C 5.578125 0.09375 5.457031 0.046875 5.375 -0.046875 C 5.289062 -0.140625 5.25 -0.269531 5.25 -0.4375 L 5.25 -1.59375 L 5.375 -1.421875 C 5.25 -0.953125 4.988281 -0.578125 4.59375 -0.296875 C 4.207031 -0.0234375 3.742188 0.109375 3.203125 0.109375 Z M 3.421875 -0.6875 C 3.785156 -0.6875 4.101562 -0.773438 4.375 -0.953125 C 4.65625 -1.140625 4.867188 -1.40625 5.015625 -1.75 C 5.171875 -2.09375 5.25 -2.503906 5.25 -2.984375 C 5.25 -3.734375 5.082031 -4.300781 4.75 -4.6875 C 4.425781 -5.082031 3.984375 -5.28125 3.421875 -5.28125 C 3.035156 -5.28125 2.707031 -5.191406 2.4375 -5.015625 C 2.164062 -4.835938 1.953125 -4.578125 1.796875 -4.234375 C 1.648438 -3.898438 1.578125 -3.484375 1.578125 -2.984375 C 1.578125 -2.242188 1.742188 -1.675781 2.078125 -1.28125 C 2.410156 -0.882812 2.859375 -0.6875 3.421875 -0.6875 Z M 3.421875 -0.6875 "/></g></g></g><g fill="#555555" fill-opacity="1"><g transform="translate(122.730882, 53.29112)"><g><path d="M 3.421875 0.109375 C 2.835938 0.109375 2.332031 -0.015625 1.90625 -0.265625 C 1.476562 -0.523438 1.144531 -0.882812 0.90625 -1.34375 C 0.675781 -1.800781 0.5625 -2.347656 0.5625 -2.984375 C 0.5625 -3.460938 0.625 -3.890625 0.75 -4.265625 C 0.882812 -4.648438 1.078125 -4.976562 1.328125 -5.25 C 1.585938 -5.519531 1.890625 -5.722656 2.234375 -5.859375 C 2.585938 -6.003906 2.984375 -6.078125 3.421875 -6.078125 C 3.992188 -6.078125 4.492188 -5.945312 4.921875 -5.6875 C 5.347656 -5.4375 5.675781 -5.082031 5.90625 -4.625 C 6.144531 -4.164062 6.265625 -3.617188 6.265625 -2.984375 C 6.265625 -2.503906 6.195312 -2.078125 6.0625 -1.703125 C 5.9375 -1.328125 5.742188 -1 5.484375 -0.71875 C 5.234375 -0.445312 4.929688 -0.238281 4.578125 -0.09375 C 4.234375 0.0390625 3.847656 0.109375 3.421875 0.109375 Z M 3.421875 -0.6875 C 3.785156 -0.6875 4.101562 -0.773438 4.375 -0.953125 C 4.65625 -1.140625 4.867188 -1.40625 5.015625 -1.75 C 5.171875 -2.09375 5.25 -2.503906 5.25 -2.984375 C 5.25 -3.734375 5.082031 -4.300781 4.75 -4.6875 C 4.425781 -5.082031 3.984375 -5.28125 3.421875 -5.28125 C 3.035156 -5.28125 2.707031 -5.191406 2.4375 -5.015625 C 2.164062 -4.835938 1.953125 -4.578125 1.796875 -4.234375 C 1.648438 -3.898438 1.578125 -3.484375 1.578125 -2.984375 C 1.578125 -2.242188 1.742188 -1.675781 2.078125 -1.28125 C 2.410156 -0.882812 2.859375 -0.6875 3.421875 -0.6875 Z M 3.421875 -0.6875 "/></g></g></g><g fill="#555555" fill-opacity="1"><g transform="translate(132.625675, 53.29112)"><g><path d="M 1.421875 2.296875 C 1.253906 2.296875 1.128906 2.25 1.046875 2.15625 C 0.972656 2.070312 0.9375 1.953125 0.9375 1.796875 L 0.9375 -5.546875 C 0.9375 -5.710938 0.972656 -5.835938 1.046875 -5.921875 C 1.128906 -6.003906 1.25 -6.046875 1.40625 -6.046875 C 1.570312 -6.046875 1.695312 -6.003906 1.78125 -5.921875 C 1.875 -5.835938 1.921875 -5.710938 1.921875 -5.546875 L 1.921875 -4.390625 L 1.78125 -4.5625 C 1.914062 -5.019531 2.175781 -5.382812 2.5625 -5.65625 C 2.945312 -5.9375 3.410156 -6.078125 3.953125 -6.078125 C 4.484375 -6.078125 4.945312 -5.953125 5.34375 -5.703125 C 5.738281 -5.453125 6.046875 -5.09375 6.265625 -4.625 C 6.484375 -4.164062 6.59375 -3.617188 6.59375 -2.984375 C 6.59375 -2.347656 6.484375 -1.800781 6.265625 -1.34375 C 6.046875 -0.882812 5.738281 -0.523438 5.34375 -0.265625 C 4.957031 -0.015625 4.492188 0.109375 3.953125 0.109375 C 3.410156 0.109375 2.945312 -0.0234375 2.5625 -0.296875 C 2.175781 -0.578125 1.914062 -0.945312 1.78125 -1.40625 L 1.921875 -1.40625 L 1.921875 1.796875 C 1.921875 1.953125 1.875 2.070312 1.78125 2.15625 C 1.695312 2.25 1.578125 2.296875 1.421875 2.296875 Z M 3.75 -0.6875 C 4.125 -0.6875 4.445312 -0.773438 4.71875 -0.953125 C 5 -1.140625 5.210938 -1.40625 5.359375 -1.75 C 5.515625 -2.09375 5.59375 -2.503906 5.59375 -2.984375 C 5.59375 -3.734375 5.425781 -4.300781 5.09375 -4.6875 C 4.757812 -5.082031 4.3125 -5.28125 3.75 -5.28125 C 3.375 -5.28125 3.046875 -5.191406 2.765625 -5.015625 C 2.492188 -4.835938 2.28125 -4.578125 2.125 -4.234375 C 1.976562 -3.898438 1.90625 -3.484375 1.90625 -2.984375 C 1.90625 -2.242188 2.070312 -1.675781 2.40625 -1.28125 C 2.738281 -0.882812 3.1875 -0.6875 3.75 -0.6875 Z M 3.75 -0.6875 "/></g></g></g><g fill="#555555" fill-opacity="1"><g transform="translate(142.851858, 53.29112)"><g><path d="M 3.328125 0.109375 C 2.859375 0.109375 2.46875 0.0234375 2.15625 -0.140625 C 1.84375 -0.304688 1.609375 -0.550781 1.453125 -0.875 C 1.296875 -1.195312 1.21875 -1.59375 1.21875 -2.0625 L 1.21875 -5.1875 L 0.390625 -5.1875 C 0.253906 -5.1875 0.148438 -5.222656 0.078125 -5.296875 C 0.00390625 -5.367188 -0.03125 -5.46875 -0.03125 -5.59375 C -0.03125 -5.707031 0.00390625 -5.796875 0.078125 -5.859375 C 0.148438 -5.929688 0.253906 -5.96875 0.390625 -5.96875 L 1.21875 -5.96875 L 1.21875 -7.375 C 1.21875 -7.539062 1.257812 -7.664062 1.34375 -7.75 C 1.4375 -7.84375 1.5625 -7.890625 1.71875 -7.890625 C 1.875 -7.890625 1.992188 -7.84375 2.078125 -7.75 C 2.160156 -7.664062 2.203125 -7.539062 2.203125 -7.375 L 2.203125 -5.96875 L 3.765625 -5.96875 C 3.898438 -5.96875 4.003906 -5.929688 4.078125 -5.859375 C 4.148438 -5.796875 4.1875 -5.707031 4.1875 -5.59375 C 4.1875 -5.46875 4.148438 -5.367188 4.078125 -5.296875 C 4.003906 -5.222656 3.898438 -5.1875 3.765625 -5.1875 L 2.203125 -5.1875 L 2.203125 -2.15625 C 2.203125 -1.695312 2.300781 -1.34375 2.5 -1.09375 C 2.695312 -0.851562 3.019531 -0.734375 3.46875 -0.734375 C 3.625 -0.734375 3.753906 -0.75 3.859375 -0.78125 C 3.972656 -0.8125 4.066406 -0.828125 4.140625 -0.828125 C 4.210938 -0.835938 4.269531 -0.8125 4.3125 -0.75 C 4.363281 -0.695312 4.390625 -0.601562 4.390625 -0.46875 C 4.390625 -0.363281 4.367188 -0.269531 4.328125 -0.1875 C 4.296875 -0.113281 4.238281 -0.0625 4.15625 -0.03125 C 4.050781 0.0078125 3.921875 0.0390625 3.765625 0.0625 C 3.609375 0.09375 3.460938 0.109375 3.328125 0.109375 Z M 3.328125 0.109375 "/></g></g></g><g fill="#555555" fill-opacity="1"><g transform="translate(150.218221, 53.29112)"><g><path d="M 1.40625 0.046875 C 1.207031 0.046875 1.046875 -0.015625 0.921875 -0.140625 C 0.796875 -0.265625 0.734375 -0.425781 0.734375 -0.625 C 0.734375 -0.820312 0.796875 -0.984375 0.921875 -1.109375 C 1.046875 -1.234375 1.207031 -1.296875 1.40625 -1.296875 C 1.613281 -1.296875 1.773438 -1.234375 1.890625 -1.109375 C 2.015625 -0.984375 2.078125 -0.820312 2.078125 -0.625 C 2.078125 -0.425781 2.015625 -0.265625 1.890625 -0.140625 C 1.773438 -0.015625 1.613281 0.046875 1.40625 0.046875 Z M 1.40625 0.046875 "/></g></g></g><g fill="#555555" fill-opacity="1"><g transform="translate(156.087167, 53.29112)"><g/></g></g><g fill="#555555" fill-opacity="1"><g transform="translate(162.32433, 53.29112)"><g><path d="M 1.578125 0 C 1.421875 0 1.296875 -0.046875 1.203125 -0.140625 C 1.109375 -0.234375 1.0625 -0.363281 1.0625 -0.53125 L 1.0625 -8.1875 C 1.0625 -8.363281 1.101562 -8.492188 1.1875 -8.578125 C 1.28125 -8.671875 1.410156 -8.71875 1.578125 -8.71875 C 1.734375 -8.71875 1.851562 -8.671875 1.9375 -8.578125 C 2.03125 -8.492188 2.078125 -8.363281 2.078125 -8.1875 L 2.078125 -0.890625 L 6.109375 -0.890625 C 6.253906 -0.890625 6.367188 -0.847656 6.453125 -0.765625 C 6.535156 -0.691406 6.578125 -0.582031 6.578125 -0.4375 C 6.578125 -0.300781 6.535156 -0.191406 6.453125 -0.109375 C 6.367188 -0.0351562 6.253906 0 6.109375 0 Z M 1.578125 0 "/></g></g></g><g fill="#555555" fill-opacity="1"><g transform="translate(172.059565, 53.29112)"><g><path d="M 3.421875 0.109375 C 2.835938 0.109375 2.332031 -0.015625 1.90625 -0.265625 C 1.476562 -0.523438 1.144531 -0.882812 0.90625 -1.34375 C 0.675781 -1.800781 0.5625 -2.347656 0.5625 -2.984375 C 0.5625 -3.460938 0.625 -3.890625 0.75 -4.265625 C 0.882812 -4.648438 1.078125 -4.976562 1.328125 -5.25 C 1.585938 -5.519531 1.890625 -5.722656 2.234375 -5.859375 C 2.585938 -6.003906 2.984375 -6.078125 3.421875 -6.078125 C 3.992188 -6.078125 4.492188 -5.945312 4.921875 -5.6875 C 5.347656 -5.4375 5.675781 -5.082031 5.90625 -4.625 C 6.144531 -4.164062 6.265625 -3.617188 6.265625 -2.984375 C 6.265625 -2.503906 6.195312 -2.078125 6.0625 -1.703125 C 5.9375 -1.328125 5.742188 -1 5.484375 -0.71875 C 5.234375 -0.445312 4.929688 -0.238281 4.578125 -0.09375 C 4.234375 0.0390625 3.847656 0.109375 3.421875 0.109375 Z M 3.421875 -0.6875 C 3.785156 -0.6875 4.101562 -0.773438 4.375 -0.953125 C 4.65625 -1.140625 4.867188 -1.40625 5.015625 -1.75 C 5.171875 -2.09375 5.25 -2.503906 5.25 -2.984375 C 5.25 -3.734375 5.082031 -4.300781 4.75 -4.6875 C 4.425781 -5.082031 3.984375 -5.28125 3.421875 -5.28125 C 3.035156 -5.28125 2.707031 -5.191406 2.4375 -5.015625 C 2.164062 -4.835938 1.953125 -4.578125 1.796875 -4.234375 C 1.648438 -3.898438 1.578125 -3.484375 1.578125 -2.984375 C 1.578125 -2.242188 1.742188 -1.675781 2.078125 -1.28125 C 2.410156 -0.882812 2.859375 -0.6875 3.421875 -0.6875 Z M 3.421875 -0.6875 "/></g></g></g><g fill="#555555" fill-opacity="1"><g transform="translate(181.954361, 53.29112)"><g><path d="M 3.15625 0.09375 C 3.019531 0.09375 2.894531 0.0546875 2.78125 -0.015625 C 2.675781 -0.0976562 2.585938 -0.222656 2.515625 -0.390625 L 0.390625 -5.359375 C 0.335938 -5.472656 0.316406 -5.582031 0.328125 -5.6875 C 0.347656 -5.800781 0.398438 -5.890625 0.484375 -5.953125 C 0.566406 -6.015625 0.679688 -6.046875 0.828125 -6.046875 C 0.953125 -6.046875 1.050781 -6.015625 1.125 -5.953125 C 1.195312 -5.898438 1.265625 -5.800781 1.328125 -5.65625 L 3.34375 -0.734375 L 3.015625 -0.734375 L 5.0625 -5.65625 C 5.113281 -5.800781 5.175781 -5.898438 5.25 -5.953125 C 5.320312 -6.015625 5.429688 -6.046875 5.578125 -6.046875 C 5.703125 -6.046875 5.800781 -6.015625 5.875 -5.953125 C 5.945312 -5.890625 5.988281 -5.804688 6 -5.703125 C 6.007812 -5.597656 5.988281 -5.484375 5.9375 -5.359375 L 3.796875 -0.390625 C 3.734375 -0.222656 3.644531 -0.0976562 3.53125 -0.015625 C 3.425781 0.0546875 3.300781 0.09375 3.15625 0.09375 Z M 3.15625 0.09375 "/></g></g></g><g fill="#555555" fill-opacity="1"><g transform="translate(191.345918, 53.29112)"><g><path d="M 3.625 0.109375 C 2.988281 0.109375 2.441406 -0.015625 1.984375 -0.265625 C 1.535156 -0.515625 1.1875 -0.867188 0.9375 -1.328125 C 0.6875 -1.785156 0.5625 -2.332031 0.5625 -2.96875 C 0.5625 -3.59375 0.679688 -4.132812 0.921875 -4.59375 C 1.171875 -5.0625 1.507812 -5.425781 1.9375 -5.6875 C 2.375 -5.945312 2.875 -6.078125 3.4375 -6.078125 C 3.84375 -6.078125 4.203125 -6.007812 4.515625 -5.875 C 4.835938 -5.738281 5.109375 -5.539062 5.328125 -5.28125 C 5.554688 -5.03125 5.726562 -4.722656 5.84375 -4.359375 C 5.96875 -4.003906 6.03125 -3.601562 6.03125 -3.15625 C 6.03125 -3.019531 5.992188 -2.921875 5.921875 -2.859375 C 5.847656 -2.804688 5.738281 -2.78125 5.59375 -2.78125 L 1.328125 -2.78125 L 1.328125 -3.421875 L 5.359375 -3.421875 L 5.171875 -3.265625 C 5.171875 -3.710938 5.101562 -4.085938 4.96875 -4.390625 C 4.84375 -4.691406 4.65625 -4.925781 4.40625 -5.09375 C 4.15625 -5.257812 3.84375 -5.34375 3.46875 -5.34375 C 3.050781 -5.34375 2.695312 -5.242188 2.40625 -5.046875 C 2.113281 -4.859375 1.890625 -4.59375 1.734375 -4.25 C 1.585938 -3.914062 1.515625 -3.519531 1.515625 -3.0625 L 1.515625 -3 C 1.515625 -2.238281 1.695312 -1.660156 2.0625 -1.265625 C 2.425781 -0.878906 2.945312 -0.6875 3.625 -0.6875 C 3.90625 -0.6875 4.179688 -0.722656 4.453125 -0.796875 C 4.722656 -0.867188 4.988281 -0.992188 5.25 -1.171875 C 5.363281 -1.242188 5.46875 -1.273438 5.5625 -1.265625 C 5.65625 -1.265625 5.726562 -1.238281 5.78125 -1.1875 C 5.84375 -1.132812 5.882812 -1.066406 5.90625 -0.984375 C 5.925781 -0.910156 5.914062 -0.828125 5.875 -0.734375 C 5.84375 -0.648438 5.773438 -0.570312 5.671875 -0.5 C 5.398438 -0.300781 5.078125 -0.148438 4.703125 -0.046875 C 4.335938 0.0546875 3.976562 0.109375 3.625 0.109375 Z M 3.625 0.109375 "/></g></g></g><g fill="#555555" fill-opacity="1"><g transform="translate(200.946132, 53.29112)"><g><path d="M 1.40625 0.046875 C 1.207031 0.046875 1.046875 -0.015625 0.921875 -0.140625 C 0.796875 -0.265625 0.734375 -0.425781 0.734375 -0.625 C 0.734375 -0.820312 0.796875 -0.984375 0.921875 -1.109375 C 1.046875 -1.234375 1.207031 -1.296875 1.40625 -1.296875 C 1.613281 -1.296875 1.773438 -1.234375 1.890625 -1.109375 C 2.015625 -0.984375 2.078125 -0.820312 2.078125 -0.625 C 2.078125 -0.425781 2.015625 -0.265625 1.890625 -0.140625 C 1.773438 -0.015625 1.613281 0.046875 1.40625 0.046875 Z M 1.40625 0.046875 "/></g></g></g><g fill="#555555" fill-opacity="1"><g transform="translate(206.815078, 53.29112)"><g/></g></g><g fill="#555555" fill-opacity="1"><g transform="translate(213.052241, 53.29112)"><g><path d="M 1.625 0 C 1.4375 0 1.296875 -0.046875 1.203125 -0.140625 C 1.109375 -0.234375 1.0625 -0.367188 1.0625 -0.546875 L 1.0625 -8.109375 C 1.0625 -8.285156 1.109375 -8.421875 1.203125 -8.515625 C 1.296875 -8.609375 1.4375 -8.65625 1.625 -8.65625 L 3.984375 -8.65625 C 5.390625 -8.65625 6.472656 -8.285156 7.234375 -7.546875 C 7.992188 -6.816406 8.375 -5.742188 8.375 -4.328125 C 8.375 -3.628906 8.273438 -3.007812 8.078125 -2.46875 C 7.890625 -1.9375 7.609375 -1.484375 7.234375 -1.109375 C 6.859375 -0.742188 6.398438 -0.46875 5.859375 -0.28125 C 5.316406 -0.09375 4.691406 0 3.984375 0 Z M 2.078125 -0.859375 L 3.921875 -0.859375 C 4.492188 -0.859375 4.988281 -0.929688 5.40625 -1.078125 C 5.832031 -1.222656 6.1875 -1.4375 6.46875 -1.71875 C 6.75 -2.007812 6.957031 -2.375 7.09375 -2.8125 C 7.238281 -3.25 7.3125 -3.753906 7.3125 -4.328125 C 7.3125 -5.484375 7.023438 -6.347656 6.453125 -6.921875 C 5.890625 -7.503906 5.046875 -7.796875 3.921875 -7.796875 L 2.078125 -7.796875 Z M 2.078125 -0.859375 "/></g></g></g><g fill="#555555" fill-opacity="1"><g transform="translate(225.229985, 53.29112)"><g><path d="M 3.421875 0.109375 C 2.835938 0.109375 2.332031 -0.015625 1.90625 -0.265625 C 1.476562 -0.523438 1.144531 -0.882812 0.90625 -1.34375 C 0.675781 -1.800781 0.5625 -2.347656 0.5625 -2.984375 C 0.5625 -3.460938 0.625 -3.890625 0.75 -4.265625 C 0.882812 -4.648438 1.078125 -4.976562 1.328125 -5.25 C 1.585938 -5.519531 1.890625 -5.722656 2.234375 -5.859375 C 2.585938 -6.003906 2.984375 -6.078125 3.421875 -6.078125 C 3.992188 -6.078125 4.492188 -5.945312 4.921875 -5.6875 C 5.347656 -5.4375 5.675781 -5.082031 5.90625 -4.625 C 6.144531 -4.164062 6.265625 -3.617188 6.265625 -2.984375 C 6.265625 -2.503906 6.195312 -2.078125 6.0625 -1.703125 C 5.9375 -1.328125 5.742188 -1 5.484375 -0.71875 C 5.234375 -0.445312 4.929688 -0.238281 4.578125 -0.09375 C 4.234375 0.0390625 3.847656 0.109375 3.421875 0.109375 Z M 3.421875 -0.6875 C 3.785156 -0.6875 4.101562 -0.773438 4.375 -0.953125 C 4.65625 -1.140625 4.867188 -1.40625 5.015625 -1.75 C 5.171875 -2.09375 5.25 -2.503906 5.25 -2.984375 C 5.25 -3.734375 5.082031 -4.300781 4.75 -4.6875 C 4.425781 -5.082031 3.984375 -5.28125 3.421875 -5.28125 C 3.035156 -5.28125 2.707031 -5.191406 2.4375 -5.015625 C 2.164062 -4.835938 1.953125 -4.578125 1.796875 -4.234375 C 1.648438 -3.898438 1.578125 -3.484375 1.578125 -2.984375 C 1.578125 -2.242188 1.742188 -1.675781 2.078125 -1.28125 C 2.410156 -0.882812 2.859375 -0.6875 3.421875 -0.6875 Z M 3.421875 -0.6875 "/></g></g></g><g fill="#555555" fill-opacity="1"><g transform="translate(235.12478, 53.29112)"><g><path d="M 1.421875 0.09375 C 1.253906 0.09375 1.128906 0.046875 1.046875 -0.046875 C 0.972656 -0.140625 0.9375 -0.269531 0.9375 -0.4375 L 0.9375 -5.546875 C 0.9375 -5.710938 0.972656 -5.835938 1.046875 -5.921875 C 1.128906 -6.003906 1.25 -6.046875 1.40625 -6.046875 C 1.5625 -6.046875 1.679688 -6.003906 1.765625 -5.921875 C 1.859375 -5.835938 1.90625 -5.710938 1.90625 -5.546875 L 1.90625 -4.5 L 1.765625 -4.640625 C 1.941406 -5.117188 2.222656 -5.476562 2.609375 -5.71875 C 2.992188 -5.957031 3.441406 -6.078125 3.953125 -6.078125 C 4.429688 -6.078125 4.828125 -5.988281 5.140625 -5.8125 C 5.453125 -5.644531 5.6875 -5.382812 5.84375 -5.03125 C 6 -4.6875 6.078125 -4.25 6.078125 -3.71875 L 6.078125 -0.4375 C 6.078125 -0.269531 6.035156 -0.140625 5.953125 -0.046875 C 5.867188 0.046875 5.75 0.09375 5.59375 0.09375 C 5.425781 0.09375 5.296875 0.046875 5.203125 -0.046875 C 5.117188 -0.140625 5.078125 -0.269531 5.078125 -0.4375 L 5.078125 -3.65625 C 5.078125 -4.21875 4.96875 -4.625 4.75 -4.875 C 4.539062 -5.132812 4.195312 -5.265625 3.71875 -5.265625 C 3.164062 -5.265625 2.726562 -5.09375 2.40625 -4.75 C 2.082031 -4.414062 1.921875 -3.96875 1.921875 -3.40625 L 1.921875 -0.4375 C 1.921875 -0.0820312 1.753906 0.09375 1.421875 0.09375 Z M 1.421875 0.09375 "/></g></g></g><g fill="#555555" fill-opacity="1"><g transform="translate(245.166857, 53.29112)"><g><path d="M 2.8125 0.109375 C 2.40625 0.109375 2.039062 0.03125 1.71875 -0.125 C 1.394531 -0.289062 1.132812 -0.507812 0.9375 -0.78125 C 0.75 -1.0625 0.65625 -1.375 0.65625 -1.71875 C 0.65625 -2.15625 0.769531 -2.5 1 -2.75 C 1.226562 -3.007812 1.597656 -3.191406 2.109375 -3.296875 C 2.628906 -3.410156 3.34375 -3.46875 4.25 -3.46875 L 4.796875 -3.46875 L 4.796875 -2.8125 L 4.265625 -2.8125 C 3.597656 -2.8125 3.070312 -2.78125 2.6875 -2.71875 C 2.3125 -2.65625 2.046875 -2.550781 1.890625 -2.40625 C 1.742188 -2.257812 1.671875 -2.050781 1.671875 -1.78125 C 1.671875 -1.445312 1.785156 -1.171875 2.015625 -0.953125 C 2.253906 -0.742188 2.570312 -0.640625 2.96875 -0.640625 C 3.300781 -0.640625 3.59375 -0.71875 3.84375 -0.875 C 4.09375 -1.03125 4.285156 -1.242188 4.421875 -1.515625 C 4.566406 -1.785156 4.640625 -2.09375 4.640625 -2.4375 L 4.640625 -3.84375 C 4.640625 -4.351562 4.535156 -4.71875 4.328125 -4.9375 C 4.128906 -5.164062 3.796875 -5.28125 3.328125 -5.28125 C 3.035156 -5.28125 2.742188 -5.242188 2.453125 -5.171875 C 2.171875 -5.097656 1.875 -4.976562 1.5625 -4.8125 C 1.445312 -4.757812 1.347656 -4.742188 1.265625 -4.765625 C 1.179688 -4.785156 1.113281 -4.828125 1.0625 -4.890625 C 1.019531 -4.953125 0.992188 -5.023438 0.984375 -5.109375 C 0.972656 -5.203125 0.988281 -5.285156 1.03125 -5.359375 C 1.082031 -5.441406 1.15625 -5.507812 1.25 -5.5625 C 1.613281 -5.738281 1.96875 -5.867188 2.3125 -5.953125 C 2.664062 -6.035156 3.003906 -6.078125 3.328125 -6.078125 C 3.847656 -6.078125 4.273438 -5.992188 4.609375 -5.828125 C 4.941406 -5.660156 5.1875 -5.40625 5.34375 -5.0625 C 5.507812 -4.726562 5.59375 -4.296875 5.59375 -3.765625 L 5.59375 -0.4375 C 5.59375 -0.269531 5.550781 -0.140625 5.46875 -0.046875 C 5.394531 0.046875 5.285156 0.09375 5.140625 0.09375 C 4.984375 0.09375 4.863281 0.046875 4.78125 -0.046875 C 4.707031 -0.140625 4.671875 -0.269531 4.671875 -0.4375 L 4.671875 -1.390625 L 4.78125 -1.390625 C 4.707031 -1.078125 4.578125 -0.8125 4.390625 -0.59375 C 4.210938 -0.375 3.988281 -0.203125 3.71875 -0.078125 C 3.445312 0.046875 3.144531 0.109375 2.8125 0.109375 Z M 2.8125 0.109375 "/></g></g></g><g fill="#555555" fill-opacity="1"><g transform="translate(254.742522, 53.29112)"><g><path d="M 3.328125 0.109375 C 2.859375 0.109375 2.46875 0.0234375 2.15625 -0.140625 C 1.84375 -0.304688 1.609375 -0.550781 1.453125 -0.875 C 1.296875 -1.195312 1.21875 -1.59375 1.21875 -2.0625 L 1.21875 -5.1875 L 0.390625 -5.1875 C 0.253906 -5.1875 0.148438 -5.222656 0.078125 -5.296875 C 0.00390625 -5.367188 -0.03125 -5.46875 -0.03125 -5.59375 C -0.03125 -5.707031 0.00390625 -5.796875 0.078125 -5.859375 C 0.148438 -5.929688 0.253906 -5.96875 0.390625 -5.96875 L 1.21875 -5.96875 L 1.21875 -7.375 C 1.21875 -7.539062 1.257812 -7.664062 1.34375 -7.75 C 1.4375 -7.84375 1.5625 -7.890625 1.71875 -7.890625 C 1.875 -7.890625 1.992188 -7.84375 2.078125 -7.75 C 2.160156 -7.664062 2.203125 -7.539062 2.203125 -7.375 L 2.203125 -5.96875 L 3.765625 -5.96875 C 3.898438 -5.96875 4.003906 -5.929688 4.078125 -5.859375 C 4.148438 -5.796875 4.1875 -5.707031 4.1875 -5.59375 C 4.1875 -5.46875 4.148438 -5.367188 4.078125 -5.296875 C 4.003906 -5.222656 3.898438 -5.1875 3.765625 -5.1875 L 2.203125 -5.1875 L 2.203125 -2.15625 C 2.203125 -1.695312 2.300781 -1.34375 2.5 -1.09375 C 2.695312 -0.851562 3.019531 -0.734375 3.46875 -0.734375 C 3.625 -0.734375 3.753906 -0.75 3.859375 -0.78125 C 3.972656 -0.8125 4.066406 -0.828125 4.140625 -0.828125 C 4.210938 -0.835938 4.269531 -0.8125 4.3125 -0.75 C 4.363281 -0.695312 4.390625 -0.601562 4.390625 -0.46875 C 4.390625 -0.363281 4.367188 -0.269531 4.328125 -0.1875 C 4.296875 -0.113281 4.238281 -0.0625 4.15625 -0.03125 C 4.050781 0.0078125 3.921875 0.0390625 3.765625 0.0625 C 3.609375 0.09375 3.460938 0.109375 3.328125 0.109375 Z M 3.328125 0.109375 "/></g></g></g><g fill="#555555" fill-opacity="1"><g transform="translate(262.108885, 53.29112)"><g><path d="M 3.625 0.109375 C 2.988281 0.109375 2.441406 -0.015625 1.984375 -0.265625 C 1.535156 -0.515625 1.1875 -0.867188 0.9375 -1.328125 C 0.6875 -1.785156 0.5625 -2.332031 0.5625 -2.96875 C 0.5625 -3.59375 0.679688 -4.132812 0.921875 -4.59375 C 1.171875 -5.0625 1.507812 -5.425781 1.9375 -5.6875 C 2.375 -5.945312 2.875 -6.078125 3.4375 -6.078125 C 3.84375 -6.078125 4.203125 -6.007812 4.515625 -5.875 C 4.835938 -5.738281 5.109375 -5.539062 5.328125 -5.28125 C 5.554688 -5.03125 5.726562 -4.722656 5.84375 -4.359375 C 5.96875 -4.003906 6.03125 -3.601562 6.03125 -3.15625 C 6.03125 -3.019531 5.992188 -2.921875 5.921875 -2.859375 C 5.847656 -2.804688 5.738281 -2.78125 5.59375 -2.78125 L 1.328125 -2.78125 L 1.328125 -3.421875 L 5.359375 -3.421875 L 5.171875 -3.265625 C 5.171875 -3.710938 5.101562 -4.085938 4.96875 -4.390625 C 4.84375 -4.691406 4.65625 -4.925781 4.40625 -5.09375 C 4.15625 -5.257812 3.84375 -5.34375 3.46875 -5.34375 C 3.050781 -5.34375 2.695312 -5.242188 2.40625 -5.046875 C 2.113281 -4.859375 1.890625 -4.59375 1.734375 -4.25 C 1.585938 -3.914062 1.515625 -3.519531 1.515625 -3.0625 L 1.515625 -3 C 1.515625 -2.238281 1.695312 -1.660156 2.0625 -1.265625 C 2.425781 -0.878906 2.945312 -0.6875 3.625 -0.6875 C 3.90625 -0.6875 4.179688 -0.722656 4.453125 -0.796875 C 4.722656 -0.867188 4.988281 -0.992188 5.25 -1.171875 C 5.363281 -1.242188 5.46875 -1.273438 5.5625 -1.265625 C 5.65625 -1.265625 5.726562 -1.238281 5.78125 -1.1875 C 5.84375 -1.132812 5.882812 -1.066406 5.90625 -0.984375 C 5.925781 -0.910156 5.914062 -0.828125 5.875 -0.734375 C 5.84375 -0.648438 5.773438 -0.570312 5.671875 -0.5 C 5.398438 -0.300781 5.078125 -0.148438 4.703125 -0.046875 C 4.335938 0.0546875 3.976562 0.109375 3.625 0.109375 Z M 3.625 0.109375 "/></g></g></g><g fill="#555555" fill-opacity="1"><g transform="translate(271.709099, 53.29112)"><g><path d="M 1.40625 0.046875 C 1.207031 0.046875 1.046875 -0.015625 0.921875 -0.140625 C 0.796875 -0.265625 0.734375 -0.425781 0.734375 -0.625 C 0.734375 -0.820312 0.796875 -0.984375 0.921875 -1.109375 C 1.046875 -1.234375 1.207031 -1.296875 1.40625 -1.296875 C 1.613281 -1.296875 1.773438 -1.234375 1.890625 -1.109375 C 2.015625 -0.984375 2.078125 -0.820312 2.078125 -0.625 C 2.078125 -0.425781 2.015625 -0.265625 1.890625 -0.140625 C 1.773438 -0.015625 1.613281 0.046875 1.40625 0.046875 Z M 1.40625 0.046875 "/></g></g></g></svg>