<svg xmlns="http://www.w3.org/2000/svg" xmlns:xlink="http://www.w3.org/1999/xlink" width="350" zoomAndPan="magnify" viewBox="0 0 262.5 60" height="80" preserveAspectRatio="xMidYMid meet" version="1.0"><defs><g/><clipPath id="3d44cf19fd"><path d="M 2.652344 10.144531 L 40.828125 10.144531 L 40.828125 52.066406 L 2.652344 52.066406 Z M 2.652344 10.144531 " clip-rule="nonzero"/></clipPath></defs><g clip-path="url(#3d44cf19fd)"><path fill="#ff8c42" d="M 36.457031 47.753906 C 36.410156 46.066406 35.777344 44.574219 34.578125 43.316406 C 34.101562 42.816406 33.589844 42.320312 33.097656 41.84375 C 32.585938 41.347656 32.054688 40.835938 31.554688 40.308594 C 30.34375 39.035156 29.484375 37.46875 29 35.65625 C 28.949219 35.457031 28.898438 35.257812 28.84375 35.058594 C 28.628906 34.21875 28.402344 33.351562 28.085938 32.554688 C 27.105469 30.105469 25.300781 28.738281 22.71875 28.488281 C 22.460938 28.460938 22.210938 28.449219 21.960938 28.449219 C 20.113281 28.449219 18.539062 29.148438 17.273438 30.53125 C 16.042969 31.882812 15.589844 33.5625 15.304688 35.03125 C 14.941406 36.902344 14.3125 38.371094 13.378906 39.527344 C 12.414062 40.71875 11.34375 41.792969 10.519531 42.59375 C 8.9375 44.136719 8.101562 45.652344 7.890625 47.371094 C 7.753906 48.472656 7.96875 49.390625 8.550781 50.179688 C 9.164062 51.007812 10.066406 51.554688 11.308594 51.84375 C 12.519531 52.128906 13.515625 52.144531 14.441406 51.898438 C 14.828125 51.792969 15.519531 51.664062 16.082031 51.566406 C 16.578125 51.484375 16.945312 51.050781 16.945312 50.542969 L 16.945312 45.246094 C 16.945312 42.507812 19.183594 40.242188 21.921875 40.261719 C 23.273438 40.269531 24.496094 40.820312 25.382812 41.707031 C 26.277344 42.601562 26.832031 43.839844 26.832031 45.203125 L 26.832031 50.34375 C 26.832031 50.875 27.230469 51.320312 27.761719 51.378906 C 27.863281 51.386719 27.960938 51.398438 28.0625 51.410156 C 28.363281 51.441406 28.652344 51.5 28.9375 51.554688 C 29.046875 51.578125 29.15625 51.597656 29.265625 51.617188 C 29.753906 51.707031 30.238281 51.796875 30.726562 51.886719 L 31.277344 51.992188 C 32.539062 51.882812 33.527344 51.621094 34.386719 51.167969 C 35.800781 50.414062 36.496094 49.265625 36.457031 47.753906 Z M 25.636719 47.09375 C 25.636719 46.652344 25.28125 46.296875 24.839844 46.296875 C 24.402344 46.296875 24.042969 46.652344 24.042969 47.09375 C 24.042969 47.53125 24.402344 47.890625 24.839844 47.890625 C 25.28125 47.890625 25.636719 47.53125 25.636719 47.09375 Z M 11.515625 22.703125 C 9.878906 21.21875 8.59375 20.59375 7.074219 20.550781 C 7.023438 20.546875 6.972656 20.546875 6.921875 20.546875 C 5.410156 20.546875 4.183594 21.25 3.460938 22.523438 C 2.835938 23.636719 2.65625 24.914062 2.929688 26.328125 C 3.21875 27.824219 3.894531 29.121094 4.992188 30.296875 C 6.308594 31.707031 7.800781 32.410156 9.546875 32.453125 C 10.773438 32.484375 11.839844 32.003906 12.621094 31.0625 C 13.273438 30.277344 13.621094 29.324219 13.65625 28.226562 C 13.726562 26.113281 12.945312 24.097656 11.515625 22.703125 Z M 40.335938 22.3125 C 39.59375 20.933594 38.359375 20.171875 36.859375 20.171875 C 36.847656 20.171875 36.832031 20.171875 36.816406 20.171875 C 35.542969 20.183594 34.34375 20.667969 33.257812 21.613281 C 32.109375 22.613281 31.320312 23.84375 30.851562 25.382812 C 30.289062 27.230469 30.425781 28.871094 31.261719 30.402344 C 31.851562 31.484375 32.796875 32.164062 34.003906 32.371094 C 35.007812 32.542969 36.007812 32.367188 36.976562 31.851562 C 38.84375 30.851562 40.195312 29.171875 40.6875 27.234375 C 41.15625 25.078125 41.054688 23.652344 40.335938 22.3125 Z M 25.554688 20.871094 C 24.941406 21.78125 24.140625 22.40625 23.171875 22.726562 C 22.011719 23.109375 20.855469 22.953125 19.828125 22.277344 C 18.367188 21.316406 17.480469 19.929688 17.109375 18.035156 C 16.800781 16.457031 16.914062 15 17.460938 13.578125 C 17.976562 12.234375 18.808594 11.242188 19.925781 10.632812 C 20.523438 10.308594 21.148438 10.144531 21.78125 10.144531 C 22.554688 10.144531 23.3125 10.390625 24.039062 10.871094 C 25.300781 11.714844 26.0625 12.925781 26.664062 15.050781 C 27.136719 16.992188 26.730469 19.113281 25.554688 20.871094 " fill-opacity="1" fill-rule="nonzero"/></g><g fill="#222222" fill-opacity="1"><g transform="translate(54.592891, 34.53714)"><g><path d="M 21.390625 -22.421875 L 21.390625 0 L 15.9375 0 L 15.9375 -9.234375 L 7.4375 -9.234375 L 7.4375 0 L 1.984375 0 L 1.984375 -22.421875 L 7.4375 -22.421875 L 7.4375 -13.640625 L 15.9375 -13.640625 L 15.9375 -22.421875 Z M 21.390625 -22.421875 "/></g></g></g><g fill="#222222" fill-opacity="1"><g transform="translate(78.258095, 34.53714)"><g><path d="M 12.578125 0.21875 C 10.472656 0.21875 8.539062 -0.269531 6.78125 -1.25 C 5.03125 -2.226562 3.632812 -3.59375 2.59375 -5.34375 C 1.5625 -7.101562 1.046875 -9.082031 1.046875 -11.28125 C 1.046875 -13.46875 1.5625 -15.429688 2.59375 -17.171875 C 3.632812 -18.921875 5.03125 -20.285156 6.78125 -21.265625 C 8.539062 -22.242188 10.472656 -22.734375 12.578125 -22.734375 C 14.691406 -22.734375 16.625 -22.242188 18.375 -21.265625 C 20.132812 -20.285156 21.519531 -18.921875 22.53125 -17.171875 C 23.539062 -15.429688 24.046875 -13.46875 24.046875 -11.28125 C 24.046875 -9.082031 23.535156 -7.101562 22.515625 -5.34375 C 21.492188 -3.59375 20.109375 -2.226562 18.359375 -1.25 C 16.617188 -0.269531 14.691406 0.21875 12.578125 0.21875 Z M 12.578125 -4.765625 C 14.367188 -4.765625 15.800781 -5.359375 16.875 -6.546875 C 17.945312 -7.734375 18.484375 -9.3125 18.484375 -11.28125 C 18.484375 -13.257812 17.945312 -14.835938 16.875 -16.015625 C 15.800781 -17.203125 14.367188 -17.796875 12.578125 -17.796875 C 10.773438 -17.796875 9.332031 -17.207031 8.25 -16.03125 C 7.175781 -14.863281 6.640625 -13.28125 6.640625 -11.28125 C 6.640625 -9.289062 7.175781 -7.707031 8.25 -6.53125 C 9.332031 -5.351562 10.773438 -4.765625 12.578125 -4.765625 Z M 12.578125 -4.765625 "/></g></g></g><g fill="#222222" fill-opacity="1"><g transform="translate(103.679821, 34.53714)"><g><path d="M 27.375 -22.421875 L 27.375 0 L 21.90625 0 L 21.90625 -13.453125 L 16.890625 0 L 12.484375 0 L 7.4375 -13.484375 L 7.4375 0 L 1.984375 0 L 1.984375 -22.421875 L 8.4375 -22.421875 L 14.71875 -6.90625 L 20.953125 -22.421875 Z M 27.375 -22.421875 "/></g></g></g><g fill="#222222" fill-opacity="1"><g transform="translate(133.317201, 34.53714)"><g><path d="M 7.4375 -18.046875 L 7.4375 -13.515625 L 14.75 -13.515625 L 14.75 -9.296875 L 7.4375 -9.296875 L 7.4375 -4.375 L 15.71875 -4.375 L 15.71875 0 L 1.984375 0 L 1.984375 -22.421875 L 15.71875 -22.421875 L 15.71875 -18.046875 Z M 7.4375 -18.046875 "/></g></g></g><g fill="#222222" fill-opacity="1"><g transform="translate(150.914414, 34.53714)"><g><path d="M 1.5625 -4.15625 L 1.5625 -8.5625 L 11.65625 -23 L 17.75 -23 L 17.75 -8.875 L 20.375 -8.875 L 20.375 -4.15625 L 17.75 -4.15625 L 17.75 0 L 12.296875 0 L 12.296875 -4.15625 Z M 12.671875 -16.984375 L 7.3125 -8.875 L 12.671875 -8.875 Z M 12.671875 -16.984375 "/></g></g></g><g fill="#222222" fill-opacity="1"><g transform="translate(172.855021, 34.53714)"><g><path d="M 18.109375 -22.421875 L 18.109375 -18.046875 L 12.171875 -18.046875 L 12.171875 0 L 6.703125 0 L 6.703125 -18.046875 L 0.765625 -18.046875 L 0.765625 -22.421875 Z M 18.109375 -22.421875 "/></g></g></g><g fill="#222222" fill-opacity="1"><g transform="translate(192.049066, 34.53714)"><g><path d="M 15.9375 -3.953125 L 7.5625 -3.953125 L 6.234375 0 L 0.515625 0 L 8.625 -22.421875 L 14.953125 -22.421875 L 23.0625 0 L 17.28125 0 Z M 14.53125 -8.171875 L 11.75 -16.390625 L 9 -8.171875 Z M 14.53125 -8.171875 "/></g></g></g><g fill="#222222" fill-opacity="1"><g transform="translate(215.905882, 34.53714)"><g><path d="M 7.4375 -22.421875 L 7.4375 0 L 1.984375 0 L 1.984375 -22.421875 Z M 7.4375 -22.421875 "/></g></g></g><g fill="#222222" fill-opacity="1"><g transform="translate(225.646658, 34.53714)"><g><path d="M 7.4375 -4.21875 L 14.59375 -4.21875 L 14.59375 0 L 1.984375 0 L 1.984375 -22.421875 L 7.4375 -22.421875 Z M 7.4375 -4.21875 "/></g></g></g><g fill="#222222" fill-opacity="1"><g transform="translate(241.199918, 34.53714)"><g><path d="M 10.09375 0.21875 C 8.457031 0.21875 6.988281 -0.046875 5.6875 -0.578125 C 4.382812 -1.109375 3.34375 -1.894531 2.5625 -2.9375 C 1.789062 -3.976562 1.382812 -5.234375 1.34375 -6.703125 L 7.15625 -6.703125 C 7.238281 -5.878906 7.523438 -5.25 8.015625 -4.8125 C 8.503906 -4.375 9.144531 -4.15625 9.9375 -4.15625 C 10.738281 -4.15625 11.375 -4.335938 11.84375 -4.703125 C 12.3125 -5.078125 12.546875 -5.597656 12.546875 -6.265625 C 12.546875 -6.816406 12.359375 -7.269531 11.984375 -7.625 C 11.617188 -7.988281 11.164062 -8.285156 10.625 -8.515625 C 10.082031 -8.753906 9.304688 -9.023438 8.296875 -9.328125 C 6.847656 -9.773438 5.664062 -10.222656 4.75 -10.671875 C 3.84375 -11.117188 3.054688 -11.773438 2.390625 -12.640625 C 1.734375 -13.515625 1.40625 -14.65625 1.40625 -16.0625 C 1.40625 -18.144531 2.160156 -19.773438 3.671875 -20.953125 C 5.179688 -22.140625 7.148438 -22.734375 9.578125 -22.734375 C 12.046875 -22.734375 14.035156 -22.140625 15.546875 -20.953125 C 17.066406 -19.773438 17.878906 -18.132812 17.984375 -16.03125 L 12.078125 -16.03125 C 12.035156 -16.757812 11.769531 -17.328125 11.28125 -17.734375 C 10.789062 -18.148438 10.160156 -18.359375 9.390625 -18.359375 C 8.734375 -18.359375 8.203125 -18.179688 7.796875 -17.828125 C 7.390625 -17.484375 7.1875 -16.976562 7.1875 -16.3125 C 7.1875 -15.59375 7.523438 -15.03125 8.203125 -14.625 C 8.890625 -14.21875 9.957031 -13.78125 11.40625 -13.3125 C 12.851562 -12.820312 14.023438 -12.351562 14.921875 -11.90625 C 15.828125 -11.457031 16.609375 -10.804688 17.265625 -9.953125 C 17.929688 -9.109375 18.265625 -8.015625 18.265625 -6.671875 C 18.265625 -5.398438 17.9375 -4.238281 17.28125 -3.1875 C 16.632812 -2.144531 15.691406 -1.316406 14.453125 -0.703125 C 13.222656 -0.0859375 11.769531 0.21875 10.09375 0.21875 Z M 10.09375 0.21875 "/></g></g></g><path stroke-linecap="round" transform="matrix(0, -0.748574, 0.748574, 0, 48.199499, 55.333105)" fill="none" stroke-linejoin="miter" d="M 0.502386 0.500578 L 63.554552 0.500578 " stroke="#b0b0b0" stroke-width="1" stroke-opacity="1" stroke-miterlimit="4"/><g fill="#555555" fill-opacity="1"><g transform="translate(56.938163, 51.299655)"><g><path d="M 0.75 0.078125 C 0.632812 0.078125 0.546875 0.0507812 0.484375 0 C 0.421875 -0.0507812 0.382812 -0.117188 0.375 -0.203125 C 0.363281 -0.296875 0.378906 -0.398438 0.421875 -0.515625 L 3.296875 -7.0625 C 3.359375 -7.195312 3.429688 -7.289062 3.515625 -7.34375 C 3.609375 -7.40625 3.707031 -7.4375 3.8125 -7.4375 C 3.914062 -7.4375 4.007812 -7.40625 4.09375 -7.34375 C 4.1875 -7.289062 4.257812 -7.195312 4.3125 -7.0625 L 7.203125 -0.515625 C 7.253906 -0.398438 7.273438 -0.296875 7.265625 -0.203125 C 7.253906 -0.117188 7.21875 -0.0507812 7.15625 0 C 7.09375 0.0507812 7.007812 0.078125 6.90625 0.078125 C 6.78125 0.078125 6.675781 0.046875 6.59375 -0.015625 C 6.519531 -0.0859375 6.457031 -0.1875 6.40625 -0.3125 L 5.640625 -2.09375 L 6.046875 -1.875 L 1.5625 -1.875 L 1.984375 -2.09375 L 1.21875 -0.3125 C 1.15625 -0.175781 1.085938 -0.078125 1.015625 -0.015625 C 0.953125 0.046875 0.863281 0.078125 0.75 0.078125 Z M 3.8125 -6.359375 L 2.125 -2.40625 L 1.875 -2.609375 L 5.734375 -2.609375 L 5.515625 -2.40625 L 3.828125 -6.359375 Z M 3.8125 -6.359375 "/></g></g></g><g fill="#555555" fill-opacity="1"><g transform="translate(67.167548, 51.299655)"><g><path d="M 2.734375 0.09375 C 2.273438 0.09375 1.875 -0.0078125 1.53125 -0.21875 C 1.195312 -0.4375 0.9375 -0.742188 0.75 -1.140625 C 0.570312 -1.535156 0.484375 -2.003906 0.484375 -2.546875 C 0.484375 -3.085938 0.570312 -3.550781 0.75 -3.9375 C 0.9375 -4.332031 1.195312 -4.632812 1.53125 -4.84375 C 1.875 -5.0625 2.273438 -5.171875 2.734375 -5.171875 C 3.191406 -5.171875 3.582031 -5.054688 3.90625 -4.828125 C 4.238281 -4.597656 4.457031 -4.289062 4.5625 -3.90625 L 4.453125 -3.90625 L 4.453125 -7.015625 C 4.453125 -7.148438 4.488281 -7.253906 4.5625 -7.328125 C 4.632812 -7.398438 4.738281 -7.4375 4.875 -7.4375 C 5.007812 -7.4375 5.113281 -7.398438 5.1875 -7.328125 C 5.257812 -7.253906 5.296875 -7.148438 5.296875 -7.015625 L 5.296875 -0.359375 C 5.296875 -0.222656 5.257812 -0.113281 5.1875 -0.03125 C 5.125 0.0390625 5.019531 0.078125 4.875 0.078125 C 4.75 0.078125 4.648438 0.0390625 4.578125 -0.03125 C 4.503906 -0.113281 4.46875 -0.222656 4.46875 -0.359375 L 4.46875 -1.359375 L 4.578125 -1.21875 C 4.460938 -0.8125 4.238281 -0.488281 3.90625 -0.25 C 3.582031 -0.0195312 3.191406 0.09375 2.734375 0.09375 Z M 2.90625 -0.578125 C 3.21875 -0.578125 3.492188 -0.65625 3.734375 -0.8125 C 3.972656 -0.96875 4.15625 -1.191406 4.28125 -1.484375 C 4.40625 -1.773438 4.46875 -2.128906 4.46875 -2.546875 C 4.46875 -3.171875 4.328125 -3.648438 4.046875 -3.984375 C 3.765625 -4.328125 3.382812 -4.5 2.90625 -4.5 C 2.582031 -4.5 2.300781 -4.421875 2.0625 -4.265625 C 1.832031 -4.117188 1.65625 -3.898438 1.53125 -3.609375 C 1.40625 -3.316406 1.34375 -2.960938 1.34375 -2.546875 C 1.34375 -1.910156 1.484375 -1.421875 1.765625 -1.078125 C 2.046875 -0.742188 2.425781 -0.578125 2.90625 -0.578125 Z M 2.90625 -0.578125 "/></g></g></g><g fill="#555555" fill-opacity="1"><g transform="translate(75.871656, 51.299655)"><g><path d="M 2.90625 0.09375 C 2.40625 0.09375 1.972656 -0.0078125 1.609375 -0.21875 C 1.253906 -0.4375 0.976562 -0.742188 0.78125 -1.140625 C 0.582031 -1.535156 0.484375 -2.003906 0.484375 -2.546875 C 0.484375 -2.941406 0.535156 -3.300781 0.640625 -3.625 C 0.753906 -3.957031 0.921875 -4.238281 1.140625 -4.46875 C 1.359375 -4.695312 1.613281 -4.867188 1.90625 -4.984375 C 2.207031 -5.109375 2.539062 -5.171875 2.90625 -5.171875 C 3.394531 -5.171875 3.820312 -5.0625 4.1875 -4.84375 C 4.550781 -4.632812 4.832031 -4.332031 5.03125 -3.9375 C 5.226562 -3.539062 5.328125 -3.078125 5.328125 -2.546875 C 5.328125 -2.140625 5.269531 -1.773438 5.15625 -1.453125 C 5.050781 -1.128906 4.890625 -0.847656 4.671875 -0.609375 C 4.453125 -0.378906 4.191406 -0.203125 3.890625 -0.078125 C 3.597656 0.0351562 3.269531 0.09375 2.90625 0.09375 Z M 2.90625 -0.578125 C 3.21875 -0.578125 3.492188 -0.65625 3.734375 -0.8125 C 3.972656 -0.96875 4.15625 -1.191406 4.28125 -1.484375 C 4.40625 -1.773438 4.46875 -2.128906 4.46875 -2.546875 C 4.46875 -3.171875 4.328125 -3.648438 4.046875 -3.984375 C 3.765625 -4.328125 3.382812 -4.5 2.90625 -4.5 C 2.582031 -4.5 2.300781 -4.421875 2.0625 -4.265625 C 1.832031 -4.117188 1.65625 -3.898438 1.53125 -3.609375 C 1.40625 -3.316406 1.34375 -2.960938 1.34375 -2.546875 C 1.34375 -1.910156 1.484375 -1.421875 1.765625 -1.078125 C 2.046875 -0.742188 2.425781 -0.578125 2.90625 -0.578125 Z M 2.90625 -0.578125 "/></g></g></g><g fill="#555555" fill-opacity="1"><g transform="translate(84.2937, 51.299655)"><g><path d="M 1.21875 1.953125 C 1.070312 1.953125 0.960938 1.914062 0.890625 1.84375 C 0.828125 1.769531 0.796875 1.664062 0.796875 1.53125 L 0.796875 -4.71875 C 0.796875 -4.863281 0.828125 -4.972656 0.890625 -5.046875 C 0.960938 -5.117188 1.066406 -5.15625 1.203125 -5.15625 C 1.335938 -5.15625 1.441406 -5.117188 1.515625 -5.046875 C 1.585938 -4.972656 1.625 -4.863281 1.625 -4.71875 L 1.625 -3.734375 L 1.515625 -3.875 C 1.628906 -4.269531 1.847656 -4.582031 2.171875 -4.8125 C 2.503906 -5.050781 2.898438 -5.171875 3.359375 -5.171875 C 3.816406 -5.171875 4.210938 -5.0625 4.546875 -4.84375 C 4.890625 -4.632812 5.148438 -4.332031 5.328125 -3.9375 C 5.515625 -3.550781 5.609375 -3.085938 5.609375 -2.546875 C 5.609375 -2.003906 5.515625 -1.535156 5.328125 -1.140625 C 5.148438 -0.742188 4.894531 -0.4375 4.5625 -0.21875 C 4.226562 -0.0078125 3.828125 0.09375 3.359375 0.09375 C 2.898438 0.09375 2.503906 -0.0195312 2.171875 -0.25 C 1.847656 -0.488281 1.628906 -0.800781 1.515625 -1.1875 L 1.640625 -1.1875 L 1.640625 1.53125 C 1.640625 1.664062 1.597656 1.769531 1.515625 1.84375 C 1.441406 1.914062 1.34375 1.953125 1.21875 1.953125 Z M 3.1875 -0.578125 C 3.507812 -0.578125 3.785156 -0.65625 4.015625 -0.8125 C 4.253906 -0.96875 4.4375 -1.191406 4.5625 -1.484375 C 4.6875 -1.773438 4.75 -2.128906 4.75 -2.546875 C 4.75 -3.171875 4.609375 -3.648438 4.328125 -3.984375 C 4.046875 -4.328125 3.664062 -4.5 3.1875 -4.5 C 2.875 -4.5 2.597656 -4.421875 2.359375 -4.265625 C 2.117188 -4.117188 1.9375 -3.898438 1.8125 -3.609375 C 1.6875 -3.316406 1.625 -2.960938 1.625 -2.546875 C 1.625 -1.910156 1.765625 -1.421875 2.046875 -1.078125 C 2.335938 -0.742188 2.71875 -0.578125 3.1875 -0.578125 Z M 3.1875 -0.578125 "/></g></g></g><g fill="#555555" fill-opacity="1"><g transform="translate(92.997809, 51.299655)"><g><path d="M 2.828125 0.09375 C 2.429688 0.09375 2.097656 0.0234375 1.828125 -0.109375 C 1.566406 -0.253906 1.367188 -0.460938 1.234375 -0.734375 C 1.097656 -1.015625 1.03125 -1.351562 1.03125 -1.75 L 1.03125 -4.421875 L 0.328125 -4.421875 C 0.210938 -4.421875 0.125 -4.445312 0.0625 -4.5 C 0 -4.5625 -0.03125 -4.644531 -0.03125 -4.75 C -0.03125 -4.851562 0 -4.929688 0.0625 -4.984375 C 0.125 -5.046875 0.210938 -5.078125 0.328125 -5.078125 L 1.03125 -5.078125 L 1.03125 -6.28125 C 1.03125 -6.414062 1.066406 -6.519531 1.140625 -6.59375 C 1.222656 -6.675781 1.332031 -6.71875 1.46875 -6.71875 C 1.59375 -6.71875 1.691406 -6.675781 1.765625 -6.59375 C 1.835938 -6.519531 1.875 -6.414062 1.875 -6.28125 L 1.875 -5.078125 L 3.203125 -5.078125 C 3.316406 -5.078125 3.40625 -5.046875 3.46875 -4.984375 C 3.53125 -4.929688 3.5625 -4.851562 3.5625 -4.75 C 3.5625 -4.644531 3.53125 -4.5625 3.46875 -4.5 C 3.40625 -4.445312 3.316406 -4.421875 3.203125 -4.421875 L 1.875 -4.421875 L 1.875 -1.84375 C 1.875 -1.445312 1.957031 -1.144531 2.125 -0.9375 C 2.300781 -0.726562 2.578125 -0.625 2.953125 -0.625 C 3.078125 -0.625 3.1875 -0.632812 3.28125 -0.65625 C 3.375 -0.6875 3.453125 -0.703125 3.515625 -0.703125 C 3.578125 -0.710938 3.628906 -0.691406 3.671875 -0.640625 C 3.722656 -0.597656 3.75 -0.515625 3.75 -0.390625 C 3.75 -0.304688 3.726562 -0.226562 3.6875 -0.15625 C 3.65625 -0.09375 3.601562 -0.046875 3.53125 -0.015625 C 3.445312 0.00390625 3.335938 0.0234375 3.203125 0.046875 C 3.066406 0.078125 2.941406 0.09375 2.828125 0.09375 Z M 2.828125 0.09375 "/></g></g></g><g fill="#555555" fill-opacity="1"><g transform="translate(99.267756, 51.299655)"><g><path d="M 1.203125 0.046875 C 1.023438 0.046875 0.882812 -0.00390625 0.78125 -0.109375 C 0.675781 -0.222656 0.625 -0.363281 0.625 -0.53125 C 0.625 -0.695312 0.675781 -0.832031 0.78125 -0.9375 C 0.882812 -1.050781 1.023438 -1.109375 1.203125 -1.109375 C 1.378906 -1.109375 1.515625 -1.050781 1.609375 -0.9375 C 1.710938 -0.832031 1.765625 -0.695312 1.765625 -0.53125 C 1.765625 -0.363281 1.710938 -0.222656 1.609375 -0.109375 C 1.515625 -0.00390625 1.378906 0.046875 1.203125 0.046875 Z M 1.203125 0.046875 "/></g></g></g><g fill="#555555" fill-opacity="1"><g transform="translate(104.263163, 51.299655)"><g/></g></g><g fill="#555555" fill-opacity="1"><g transform="translate(109.571981, 51.299655)"><g><path d="M 1.34375 0 C 1.207031 0 1.097656 -0.0351562 1.015625 -0.109375 C 0.941406 -0.191406 0.90625 -0.304688 0.90625 -0.453125 L 0.90625 -6.96875 C 0.90625 -7.113281 0.941406 -7.222656 1.015625 -7.296875 C 1.085938 -7.378906 1.195312 -7.421875 1.34375 -7.421875 C 1.476562 -7.421875 1.582031 -7.378906 1.65625 -7.296875 C 1.726562 -7.222656 1.765625 -7.113281 1.765625 -6.96875 L 1.765625 -0.75 L 5.1875 -0.75 C 5.320312 -0.75 5.421875 -0.710938 5.484375 -0.640625 C 5.554688 -0.578125 5.59375 -0.488281 5.59375 -0.375 C 5.59375 -0.257812 5.554688 -0.164062 5.484375 -0.09375 C 5.421875 -0.03125 5.320312 0 5.1875 0 Z M 1.34375 0 "/></g></g></g><g fill="#555555" fill-opacity="1"><g transform="translate(117.858216, 51.299655)"><g><path d="M 2.90625 0.09375 C 2.40625 0.09375 1.972656 -0.0078125 1.609375 -0.21875 C 1.253906 -0.4375 0.976562 -0.742188 0.78125 -1.140625 C 0.582031 -1.535156 0.484375 -2.003906 0.484375 -2.546875 C 0.484375 -2.941406 0.535156 -3.300781 0.640625 -3.625 C 0.753906 -3.957031 0.921875 -4.238281 1.140625 -4.46875 C 1.359375 -4.695312 1.613281 -4.867188 1.90625 -4.984375 C 2.207031 -5.109375 2.539062 -5.171875 2.90625 -5.171875 C 3.394531 -5.171875 3.820312 -5.0625 4.1875 -4.84375 C 4.550781 -4.632812 4.832031 -4.332031 5.03125 -3.9375 C 5.226562 -3.539062 5.328125 -3.078125 5.328125 -2.546875 C 5.328125 -2.140625 5.269531 -1.773438 5.15625 -1.453125 C 5.050781 -1.128906 4.890625 -0.847656 4.671875 -0.609375 C 4.453125 -0.378906 4.191406 -0.203125 3.890625 -0.078125 C 3.597656 0.0351562 3.269531 0.09375 2.90625 0.09375 Z M 2.90625 -0.578125 C 3.21875 -0.578125 3.492188 -0.65625 3.734375 -0.8125 C 3.972656 -0.96875 4.15625 -1.191406 4.28125 -1.484375 C 4.40625 -1.773438 4.46875 -2.128906 4.46875 -2.546875 C 4.46875 -3.171875 4.328125 -3.648438 4.046875 -3.984375 C 3.765625 -4.328125 3.382812 -4.5 2.90625 -4.5 C 2.582031 -4.5 2.300781 -4.421875 2.0625 -4.265625 C 1.832031 -4.117188 1.65625 -3.898438 1.53125 -3.609375 C 1.40625 -3.316406 1.34375 -2.960938 1.34375 -2.546875 C 1.34375 -1.910156 1.484375 -1.421875 1.765625 -1.078125 C 2.046875 -0.742188 2.425781 -0.578125 2.90625 -0.578125 Z M 2.90625 -0.578125 "/></g></g></g><g fill="#555555" fill-opacity="1"><g transform="translate(126.280262, 51.299655)"><g><path d="M 2.6875 0.078125 C 2.570312 0.078125 2.46875 0.046875 2.375 -0.015625 C 2.28125 -0.0859375 2.203125 -0.191406 2.140625 -0.328125 L 0.328125 -4.5625 C 0.285156 -4.664062 0.269531 -4.757812 0.28125 -4.84375 C 0.289062 -4.9375 0.332031 -5.007812 0.40625 -5.0625 C 0.476562 -5.125 0.578125 -5.15625 0.703125 -5.15625 C 0.816406 -5.15625 0.90625 -5.128906 0.96875 -5.078125 C 1.03125 -5.023438 1.082031 -4.9375 1.125 -4.8125 L 2.84375 -0.625 L 2.5625 -0.625 L 4.3125 -4.8125 C 4.351562 -4.9375 4.40625 -5.023438 4.46875 -5.078125 C 4.53125 -5.128906 4.625 -5.15625 4.75 -5.15625 C 4.851562 -5.15625 4.9375 -5.125 5 -5.0625 C 5.0625 -5.007812 5.097656 -4.9375 5.109375 -4.84375 C 5.117188 -4.757812 5.101562 -4.664062 5.0625 -4.5625 L 3.234375 -0.328125 C 3.179688 -0.191406 3.109375 -0.0859375 3.015625 -0.015625 C 2.921875 0.046875 2.8125 0.078125 2.6875 0.078125 Z M 2.6875 0.078125 "/></g></g></g><g fill="#555555" fill-opacity="1"><g transform="translate(134.273971, 51.299655)"><g><path d="M 3.078125 0.09375 C 2.546875 0.09375 2.085938 -0.0078125 1.703125 -0.21875 C 1.316406 -0.4375 1.015625 -0.738281 0.796875 -1.125 C 0.585938 -1.519531 0.484375 -1.988281 0.484375 -2.53125 C 0.484375 -3.0625 0.585938 -3.519531 0.796875 -3.90625 C 1.003906 -4.300781 1.289062 -4.609375 1.65625 -4.828125 C 2.019531 -5.054688 2.441406 -5.171875 2.921875 -5.171875 C 3.265625 -5.171875 3.570312 -5.113281 3.84375 -5 C 4.113281 -4.882812 4.34375 -4.71875 4.53125 -4.5 C 4.726562 -4.289062 4.875 -4.03125 4.96875 -3.71875 C 5.070312 -3.414062 5.125 -3.070312 5.125 -2.6875 C 5.125 -2.570312 5.09375 -2.488281 5.03125 -2.4375 C 4.96875 -2.382812 4.878906 -2.359375 4.765625 -2.359375 L 1.125 -2.359375 L 1.125 -2.921875 L 4.5625 -2.921875 L 4.40625 -2.78125 C 4.40625 -3.15625 4.347656 -3.472656 4.234375 -3.734375 C 4.117188 -3.992188 3.953125 -4.191406 3.734375 -4.328125 C 3.523438 -4.472656 3.265625 -4.546875 2.953125 -4.546875 C 2.597656 -4.546875 2.296875 -4.460938 2.046875 -4.296875 C 1.796875 -4.140625 1.609375 -3.914062 1.484375 -3.625 C 1.359375 -3.332031 1.296875 -2.992188 1.296875 -2.609375 L 1.296875 -2.546875 C 1.296875 -1.910156 1.445312 -1.421875 1.75 -1.078125 C 2.0625 -0.742188 2.503906 -0.578125 3.078125 -0.578125 C 3.316406 -0.578125 3.550781 -0.609375 3.78125 -0.671875 C 4.019531 -0.742188 4.25 -0.851562 4.46875 -1 C 4.570312 -1.0625 4.660156 -1.085938 4.734375 -1.078125 C 4.816406 -1.078125 4.878906 -1.050781 4.921875 -1 C 4.972656 -0.957031 5.007812 -0.898438 5.03125 -0.828125 C 5.050781 -0.765625 5.046875 -0.695312 5.015625 -0.625 C 4.984375 -0.550781 4.921875 -0.484375 4.828125 -0.421875 C 4.597656 -0.253906 4.328125 -0.125 4.015625 -0.03125 C 3.703125 0.0507812 3.390625 0.09375 3.078125 0.09375 Z M 3.078125 0.09375 "/></g></g></g><g fill="#555555" fill-opacity="1"><g transform="translate(142.445281, 51.299655)"><g><path d="M 1.203125 0.046875 C 1.023438 0.046875 0.882812 -0.00390625 0.78125 -0.109375 C 0.675781 -0.222656 0.625 -0.363281 0.625 -0.53125 C 0.625 -0.695312 0.675781 -0.832031 0.78125 -0.9375 C 0.882812 -1.050781 1.023438 -1.109375 1.203125 -1.109375 C 1.378906 -1.109375 1.515625 -1.050781 1.609375 -0.9375 C 1.710938 -0.832031 1.765625 -0.695312 1.765625 -0.53125 C 1.765625 -0.363281 1.710938 -0.222656 1.609375 -0.109375 C 1.515625 -0.00390625 1.378906 0.046875 1.203125 0.046875 Z M 1.203125 0.046875 "/></g></g></g><g fill="#555555" fill-opacity="1"><g transform="translate(147.440688, 51.299655)"><g/></g></g><g fill="#555555" fill-opacity="1"><g transform="translate(152.749507, 51.299655)"><g><path d="M 1.375 0 C 1.226562 0 1.113281 -0.0351562 1.03125 -0.109375 C 0.945312 -0.191406 0.90625 -0.3125 0.90625 -0.46875 L 0.90625 -6.90625 C 0.90625 -7.050781 0.945312 -7.164062 1.03125 -7.25 C 1.113281 -7.332031 1.226562 -7.375 1.375 -7.375 L 3.390625 -7.375 C 4.585938 -7.375 5.507812 -7.054688 6.15625 -6.421875 C 6.800781 -5.796875 7.125 -4.882812 7.125 -3.6875 C 7.125 -3.09375 7.039062 -2.566406 6.875 -2.109375 C 6.71875 -1.648438 6.476562 -1.265625 6.15625 -0.953125 C 5.832031 -0.640625 5.441406 -0.398438 4.984375 -0.234375 C 4.523438 -0.078125 3.992188 0 3.390625 0 Z M 1.765625 -0.734375 L 3.328125 -0.734375 C 3.816406 -0.734375 4.238281 -0.796875 4.59375 -0.921875 C 4.957031 -1.046875 5.257812 -1.226562 5.5 -1.46875 C 5.738281 -1.71875 5.914062 -2.023438 6.03125 -2.390625 C 6.15625 -2.765625 6.21875 -3.195312 6.21875 -3.6875 C 6.21875 -4.664062 5.976562 -5.398438 5.5 -5.890625 C 5.019531 -6.390625 4.296875 -6.640625 3.328125 -6.640625 L 1.765625 -6.640625 Z M 1.765625 -0.734375 "/></g></g></g><g fill="#555555" fill-opacity="1"><g transform="translate(163.114704, 51.299655)"><g><path d="M 2.90625 0.09375 C 2.40625 0.09375 1.972656 -0.0078125 1.609375 -0.21875 C 1.253906 -0.4375 0.976562 -0.742188 0.78125 -1.140625 C 0.582031 -1.535156 0.484375 -2.003906 0.484375 -2.546875 C 0.484375 -2.941406 0.535156 -3.300781 0.640625 -3.625 C 0.753906 -3.957031 0.921875 -4.238281 1.140625 -4.46875 C 1.359375 -4.695312 1.613281 -4.867188 1.90625 -4.984375 C 2.207031 -5.109375 2.539062 -5.171875 2.90625 -5.171875 C 3.394531 -5.171875 3.820312 -5.0625 4.1875 -4.84375 C 4.550781 -4.632812 4.832031 -4.332031 5.03125 -3.9375 C 5.226562 -3.539062 5.328125 -3.078125 5.328125 -2.546875 C 5.328125 -2.140625 5.269531 -1.773438 5.15625 -1.453125 C 5.050781 -1.128906 4.890625 -0.847656 4.671875 -0.609375 C 4.453125 -0.378906 4.191406 -0.203125 3.890625 -0.078125 C 3.597656 0.0351562 3.269531 0.09375 2.90625 0.09375 Z M 2.90625 -0.578125 C 3.21875 -0.578125 3.492188 -0.65625 3.734375 -0.8125 C 3.972656 -0.96875 4.15625 -1.191406 4.28125 -1.484375 C 4.40625 -1.773438 4.46875 -2.128906 4.46875 -2.546875 C 4.46875 -3.171875 4.328125 -3.648438 4.046875 -3.984375 C 3.765625 -4.328125 3.382812 -4.5 2.90625 -4.5 C 2.582031 -4.5 2.300781 -4.421875 2.0625 -4.265625 C 1.832031 -4.117188 1.65625 -3.898438 1.53125 -3.609375 C 1.40625 -3.316406 1.34375 -2.960938 1.34375 -2.546875 C 1.34375 -1.910156 1.484375 -1.421875 1.765625 -1.078125 C 2.046875 -0.742188 2.425781 -0.578125 2.90625 -0.578125 Z M 2.90625 -0.578125 "/></g></g></g><g fill="#555555" fill-opacity="1"><g transform="translate(171.53675, 51.299655)"><g><path d="M 1.21875 0.078125 C 1.070312 0.078125 0.960938 0.0390625 0.890625 -0.03125 C 0.828125 -0.113281 0.796875 -0.222656 0.796875 -0.359375 L 0.796875 -4.71875 C 0.796875 -4.863281 0.828125 -4.972656 0.890625 -5.046875 C 0.960938 -5.117188 1.066406 -5.15625 1.203125 -5.15625 C 1.335938 -5.15625 1.441406 -5.117188 1.515625 -5.046875 C 1.585938 -4.972656 1.625 -4.863281 1.625 -4.71875 L 1.625 -3.828125 L 1.5 -3.953125 C 1.644531 -4.359375 1.882812 -4.660156 2.21875 -4.859375 C 2.550781 -5.066406 2.929688 -5.171875 3.359375 -5.171875 C 3.765625 -5.171875 4.101562 -5.097656 4.375 -4.953125 C 4.644531 -4.804688 4.84375 -4.582031 4.96875 -4.28125 C 5.101562 -3.988281 5.171875 -3.617188 5.171875 -3.171875 L 5.171875 -0.359375 C 5.171875 -0.222656 5.132812 -0.113281 5.0625 -0.03125 C 4.988281 0.0390625 4.882812 0.078125 4.75 0.078125 C 4.613281 0.078125 4.507812 0.0390625 4.4375 -0.03125 C 4.363281 -0.113281 4.328125 -0.222656 4.328125 -0.359375 L 4.328125 -3.109375 C 4.328125 -3.585938 4.234375 -3.9375 4.046875 -4.15625 C 3.867188 -4.375 3.578125 -4.484375 3.171875 -4.484375 C 2.703125 -4.484375 2.328125 -4.335938 2.046875 -4.046875 C 1.773438 -3.753906 1.640625 -3.367188 1.640625 -2.890625 L 1.640625 -0.359375 C 1.640625 -0.0664062 1.5 0.078125 1.21875 0.078125 Z M 1.21875 0.078125 "/></g></g></g><g fill="#555555" fill-opacity="1"><g transform="translate(180.084155, 51.299655)"><g><path d="M 2.390625 0.09375 C 2.046875 0.09375 1.734375 0.0234375 1.453125 -0.109375 C 1.179688 -0.242188 0.960938 -0.429688 0.796875 -0.671875 C 0.640625 -0.910156 0.5625 -1.175781 0.5625 -1.46875 C 0.5625 -1.84375 0.65625 -2.132812 0.84375 -2.34375 C 1.039062 -2.5625 1.359375 -2.71875 1.796875 -2.8125 C 2.242188 -2.90625 2.847656 -2.953125 3.609375 -2.953125 L 4.09375 -2.953125 L 4.09375 -2.390625 L 3.625 -2.390625 C 3.0625 -2.390625 2.617188 -2.363281 2.296875 -2.3125 C 1.972656 -2.257812 1.742188 -2.171875 1.609375 -2.046875 C 1.484375 -1.921875 1.421875 -1.742188 1.421875 -1.515625 C 1.421875 -1.234375 1.519531 -1 1.71875 -0.8125 C 1.914062 -0.632812 2.1875 -0.546875 2.53125 -0.546875 C 2.8125 -0.546875 3.054688 -0.609375 3.265625 -0.734375 C 3.472656 -0.867188 3.640625 -1.050781 3.765625 -1.28125 C 3.890625 -1.507812 3.953125 -1.773438 3.953125 -2.078125 L 3.953125 -3.265625 C 3.953125 -3.703125 3.863281 -4.015625 3.6875 -4.203125 C 3.507812 -4.398438 3.222656 -4.5 2.828125 -4.5 C 2.585938 -4.5 2.34375 -4.46875 2.09375 -4.40625 C 1.851562 -4.34375 1.597656 -4.238281 1.328125 -4.09375 C 1.234375 -4.050781 1.148438 -4.035156 1.078125 -4.046875 C 1.003906 -4.066406 0.945312 -4.101562 0.90625 -4.15625 C 0.863281 -4.21875 0.835938 -4.285156 0.828125 -4.359375 C 0.828125 -4.429688 0.84375 -4.5 0.875 -4.5625 C 0.914062 -4.632812 0.976562 -4.691406 1.0625 -4.734375 C 1.375 -4.890625 1.675781 -5 1.96875 -5.0625 C 2.269531 -5.132812 2.554688 -5.171875 2.828125 -5.171875 C 3.265625 -5.171875 3.625 -5.097656 3.90625 -4.953125 C 4.195312 -4.816406 4.410156 -4.601562 4.546875 -4.3125 C 4.691406 -4.019531 4.765625 -3.648438 4.765625 -3.203125 L 4.765625 -0.359375 C 4.765625 -0.222656 4.726562 -0.113281 4.65625 -0.03125 C 4.59375 0.0390625 4.5 0.078125 4.375 0.078125 C 4.25 0.078125 4.148438 0.0390625 4.078125 -0.03125 C 4.003906 -0.113281 3.96875 -0.222656 3.96875 -0.359375 L 3.96875 -1.1875 L 4.0625 -1.1875 C 4.007812 -0.914062 3.90625 -0.6875 3.75 -0.5 C 3.59375 -0.3125 3.398438 -0.164062 3.171875 -0.0625 C 2.941406 0.0390625 2.679688 0.09375 2.390625 0.09375 Z M 2.390625 0.09375 "/></g></g></g><g fill="#555555" fill-opacity="1"><g transform="translate(188.234571, 51.299655)"><g><path d="M 2.828125 0.09375 C 2.429688 0.09375 2.097656 0.0234375 1.828125 -0.109375 C 1.566406 -0.253906 1.367188 -0.460938 1.234375 -0.734375 C 1.097656 -1.015625 1.03125 -1.351562 1.03125 -1.75 L 1.03125 -4.421875 L 0.328125 -4.421875 C 0.210938 -4.421875 0.125 -4.445312 0.0625 -4.5 C 0 -4.5625 -0.03125 -4.644531 -0.03125 -4.75 C -0.03125 -4.851562 0 -4.929688 0.0625 -4.984375 C 0.125 -5.046875 0.210938 -5.078125 0.328125 -5.078125 L 1.03125 -5.078125 L 1.03125 -6.28125 C 1.03125 -6.414062 1.066406 -6.519531 1.140625 -6.59375 C 1.222656 -6.675781 1.332031 -6.71875 1.46875 -6.71875 C 1.59375 -6.71875 1.691406 -6.675781 1.765625 -6.59375 C 1.835938 -6.519531 1.875 -6.414062 1.875 -6.28125 L 1.875 -5.078125 L 3.203125 -5.078125 C 3.316406 -5.078125 3.40625 -5.046875 3.46875 -4.984375 C 3.53125 -4.929688 3.5625 -4.851562 3.5625 -4.75 C 3.5625 -4.644531 3.53125 -4.5625 3.46875 -4.5 C 3.40625 -4.445312 3.316406 -4.421875 3.203125 -4.421875 L 1.875 -4.421875 L 1.875 -1.84375 C 1.875 -1.445312 1.957031 -1.144531 2.125 -0.9375 C 2.300781 -0.726562 2.578125 -0.625 2.953125 -0.625 C 3.078125 -0.625 3.1875 -0.632812 3.28125 -0.65625 C 3.375 -0.6875 3.453125 -0.703125 3.515625 -0.703125 C 3.578125 -0.710938 3.628906 -0.691406 3.671875 -0.640625 C 3.722656 -0.597656 3.75 -0.515625 3.75 -0.390625 C 3.75 -0.304688 3.726562 -0.226562 3.6875 -0.15625 C 3.65625 -0.09375 3.601562 -0.046875 3.53125 -0.015625 C 3.445312 0.00390625 3.335938 0.0234375 3.203125 0.046875 C 3.066406 0.078125 2.941406 0.09375 2.828125 0.09375 Z M 2.828125 0.09375 "/></g></g></g><g fill="#555555" fill-opacity="1"><g transform="translate(194.504518, 51.299655)"><g><path d="M 3.078125 0.09375 C 2.546875 0.09375 2.085938 -0.0078125 1.703125 -0.21875 C 1.316406 -0.4375 1.015625 -0.738281 0.796875 -1.125 C 0.585938 -1.519531 0.484375 -1.988281 0.484375 -2.53125 C 0.484375 -3.0625 0.585938 -3.519531 0.796875 -3.90625 C 1.003906 -4.300781 1.289062 -4.609375 1.65625 -4.828125 C 2.019531 -5.054688 2.441406 -5.171875 2.921875 -5.171875 C 3.265625 -5.171875 3.570312 -5.113281 3.84375 -5 C 4.113281 -4.882812 4.34375 -4.71875 4.53125 -4.5 C 4.726562 -4.289062 4.875 -4.03125 4.96875 -3.71875 C 5.070312 -3.414062 5.125 -3.070312 5.125 -2.6875 C 5.125 -2.570312 5.09375 -2.488281 5.03125 -2.4375 C 4.96875 -2.382812 4.878906 -2.359375 4.765625 -2.359375 L 1.125 -2.359375 L 1.125 -2.921875 L 4.5625 -2.921875 L 4.40625 -2.78125 C 4.40625 -3.15625 4.347656 -3.472656 4.234375 -3.734375 C 4.117188 -3.992188 3.953125 -4.191406 3.734375 -4.328125 C 3.523438 -4.472656 3.265625 -4.546875 2.953125 -4.546875 C 2.597656 -4.546875 2.296875 -4.460938 2.046875 -4.296875 C 1.796875 -4.140625 1.609375 -3.914062 1.484375 -3.625 C 1.359375 -3.332031 1.296875 -2.992188 1.296875 -2.609375 L 1.296875 -2.546875 C 1.296875 -1.910156 1.445312 -1.421875 1.75 -1.078125 C 2.0625 -0.742188 2.503906 -0.578125 3.078125 -0.578125 C 3.316406 -0.578125 3.550781 -0.609375 3.78125 -0.671875 C 4.019531 -0.742188 4.25 -0.851562 4.46875 -1 C 4.570312 -1.0625 4.660156 -1.085938 4.734375 -1.078125 C 4.816406 -1.078125 4.878906 -1.050781 4.921875 -1 C 4.972656 -0.957031 5.007812 -0.898438 5.03125 -0.828125 C 5.050781 -0.765625 5.046875 -0.695312 5.015625 -0.625 C 4.984375 -0.550781 4.921875 -0.484375 4.828125 -0.421875 C 4.597656 -0.253906 4.328125 -0.125 4.015625 -0.03125 C 3.703125 0.0507812 3.390625 0.09375 3.078125 0.09375 Z M 3.078125 0.09375 "/></g></g></g><g fill="#555555" fill-opacity="1"><g transform="translate(202.675828, 51.299655)"><g><path d="M 1.203125 0.046875 C 1.023438 0.046875 0.882812 -0.00390625 0.78125 -0.109375 C 0.675781 -0.222656 0.625 -0.363281 0.625 -0.53125 C 0.625 -0.695312 0.675781 -0.832031 0.78125 -0.9375 C 0.882812 -1.050781 1.023438 -1.109375 1.203125 -1.109375 C 1.378906 -1.109375 1.515625 -1.050781 1.609375 -0.9375 C 1.710938 -0.832031 1.765625 -0.695312 1.765625 -0.53125 C 1.765625 -0.363281 1.710938 -0.222656 1.609375 -0.109375 C 1.515625 -0.00390625 1.378906 0.046875 1.203125 0.046875 Z M 1.203125 0.046875 "/></g></g></g></svg>