<svg xmlns="http://www.w3.org/2000/svg" xmlns:xlink="http://www.w3.org/1999/xlink" width="500" zoomAndPan="magnify" viewBox="0 0 375 374.999991" height="500" preserveAspectRatio="xMidYMid meet" version="1.0"><defs><g/><clipPath id="0994f4fb27"><path d="M 7 163.625 L 60 163.625 L 60 221.375 L 7 221.375 Z M 7 163.625 " clip-rule="nonzero"/></clipPath></defs><g clip-path="url(#0994f4fb27)"><path fill="#ff8c42" d="M 53.480469 215.429688 C 53.417969 213.105469 52.546875 211.050781 50.894531 209.316406 C 50.238281 208.625 49.535156 207.945312 48.855469 207.289062 C 48.148438 206.609375 47.421875 205.902344 46.730469 205.175781 C 45.0625 203.417969 43.878906 201.261719 43.214844 198.765625 C 43.140625 198.492188 43.070312 198.214844 43 197.941406 C 42.699219 196.785156 42.390625 195.589844 41.949219 194.492188 C 40.605469 191.121094 38.117188 189.238281 34.5625 188.890625 C 34.207031 188.855469 33.859375 188.839844 33.515625 188.839844 C 30.972656 188.839844 28.804688 189.800781 27.0625 191.707031 C 25.367188 193.566406 24.738281 195.882812 24.347656 197.90625 C 23.847656 200.480469 22.980469 202.503906 21.695312 204.097656 C 20.367188 205.738281 18.894531 207.21875 17.757812 208.320312 C 15.578125 210.445312 14.425781 212.535156 14.132812 214.898438 C 13.945312 216.417969 14.242188 217.6875 15.042969 218.769531 C 15.886719 219.914062 17.128906 220.664062 18.84375 221.066406 C 20.511719 221.453125 21.882812 221.476562 23.15625 221.136719 C 23.691406 220.992188 24.644531 220.816406 25.417969 220.683594 C 26.105469 220.566406 26.605469 219.96875 26.605469 219.273438 L 26.605469 211.976562 C 26.605469 208.207031 29.691406 205.082031 33.464844 205.109375 C 35.324219 205.121094 37.007812 205.878906 38.230469 207.101562 C 39.460938 208.332031 40.222656 210.035156 40.222656 211.917969 L 40.222656 218.996094 C 40.222656 219.730469 40.777344 220.34375 41.503906 220.421875 C 41.644531 220.4375 41.78125 220.449219 41.921875 220.464844 C 42.332031 220.507812 42.734375 220.589844 43.125 220.667969 C 43.277344 220.695312 43.429688 220.726562 43.578125 220.753906 C 44.25 220.875 44.917969 221 45.589844 221.125 L 46.347656 221.265625 C 48.089844 221.117188 49.449219 220.757812 50.628906 220.128906 C 52.578125 219.09375 53.539062 217.511719 53.480469 215.429688 Z M 38.582031 214.519531 C 38.582031 213.914062 38.089844 213.421875 37.484375 213.421875 C 36.878906 213.421875 36.386719 213.914062 36.386719 214.519531 C 36.386719 215.125 36.878906 215.617188 37.484375 215.617188 C 38.089844 215.617188 38.582031 215.125 38.582031 214.519531 Z M 19.128906 180.925781 C 16.875 178.878906 15.101562 178.019531 13.011719 177.957031 C 12.941406 177.953125 12.871094 177.953125 12.800781 177.953125 C 10.71875 177.953125 9.027344 178.921875 8.035156 180.679688 C 7.171875 182.207031 6.925781 183.96875 7.300781 185.914062 C 7.703125 187.976562 8.632812 189.765625 10.144531 191.382812 C 11.957031 193.324219 14.007812 194.296875 16.414062 194.355469 C 18.105469 194.394531 19.574219 193.734375 20.648438 192.4375 C 21.546875 191.359375 22.027344 190.042969 22.078125 188.53125 C 22.171875 185.621094 21.097656 182.847656 19.128906 180.925781 Z M 58.824219 180.386719 C 57.804688 178.484375 56.105469 177.4375 54.039062 177.4375 C 54.019531 177.4375 54 177.4375 53.980469 177.4375 C 52.222656 177.453125 50.574219 178.121094 49.078125 179.421875 C 47.492188 180.796875 46.410156 182.496094 45.765625 184.617188 C 44.988281 187.15625 45.171875 189.421875 46.324219 191.53125 C 47.136719 193.019531 48.445312 193.957031 50.105469 194.242188 C 51.488281 194.480469 52.867188 194.238281 54.199219 193.523438 C 56.769531 192.148438 58.632812 189.832031 59.3125 187.167969 C 59.957031 184.195312 59.816406 182.226562 58.824219 180.386719 Z M 38.464844 178.398438 C 37.621094 179.65625 36.519531 180.515625 35.183594 180.957031 C 33.585938 181.484375 31.992188 181.269531 30.578125 180.335938 C 28.566406 179.015625 27.34375 177.101562 26.832031 174.496094 C 26.40625 172.320312 26.566406 170.3125 27.320312 168.351562 C 28.03125 166.503906 29.171875 165.140625 30.714844 164.300781 C 31.539062 163.851562 32.398438 163.625 33.265625 163.625 C 34.332031 163.625 35.378906 163.960938 36.378906 164.628906 C 38.117188 165.789062 39.164062 167.457031 39.992188 170.386719 C 40.644531 173.058594 40.085938 175.980469 38.464844 178.398438 " fill-opacity="1" fill-rule="nonzero"/></g><g fill="#222222" fill-opacity="1"><g transform="translate(78.466091, 197.224996)"><g><path d="M 29.484375 -30.890625 L 29.484375 0 L 21.953125 0 L 21.953125 -12.71875 L 10.25 -12.71875 L 10.25 0 L 2.734375 0 L 2.734375 -30.890625 L 10.25 -30.890625 L 10.25 -18.78125 L 21.953125 -18.78125 L 21.953125 -30.890625 Z M 29.484375 -30.890625 "/></g></g></g><g fill="#222222" fill-opacity="1"><g transform="translate(111.064361, 197.224996)"><g><path d="M 17.34375 0.3125 C 14.4375 0.3125 11.769531 -0.359375 9.34375 -1.703125 C 6.925781 -3.054688 5.003906 -4.941406 3.578125 -7.359375 C 2.160156 -9.785156 1.453125 -12.507812 1.453125 -15.53125 C 1.453125 -18.550781 2.160156 -21.265625 3.578125 -23.671875 C 5.003906 -26.078125 6.925781 -27.953125 9.34375 -29.296875 C 11.769531 -30.648438 14.4375 -31.328125 17.34375 -31.328125 C 20.238281 -31.328125 22.894531 -30.648438 25.3125 -29.296875 C 27.738281 -27.953125 29.644531 -26.078125 31.03125 -23.671875 C 32.425781 -21.265625 33.125 -18.550781 33.125 -15.53125 C 33.125 -12.507812 32.421875 -9.785156 31.015625 -7.359375 C 29.609375 -4.941406 27.703125 -3.054688 25.296875 -1.703125 C 22.890625 -0.359375 20.238281 0.3125 17.34375 0.3125 Z M 17.34375 -6.5625 C 19.800781 -6.5625 21.769531 -7.378906 23.25 -9.015625 C 24.726562 -10.660156 25.46875 -12.832031 25.46875 -15.53125 C 25.46875 -18.257812 24.726562 -20.4375 23.25 -22.0625 C 21.769531 -23.695312 19.800781 -24.515625 17.34375 -24.515625 C 14.84375 -24.515625 12.851562 -23.707031 11.375 -22.09375 C 9.894531 -20.476562 9.15625 -18.289062 9.15625 -15.53125 C 9.15625 -12.800781 9.894531 -10.625 11.375 -9 C 12.851562 -7.375 14.84375 -6.5625 17.34375 -6.5625 Z M 17.34375 -6.5625 "/></g></g></g><g fill="#222222" fill-opacity="1"><g transform="translate(146.082198, 197.224996)"><g><path d="M 37.703125 -30.890625 L 37.703125 0 L 30.1875 0 L 30.1875 -18.53125 L 23.28125 0 L 17.203125 0 L 10.25 -18.5625 L 10.25 0 L 2.734375 0 L 2.734375 -30.890625 L 11.609375 -30.890625 L 20.28125 -9.5 L 28.859375 -30.890625 Z M 37.703125 -30.890625 "/></g></g></g><g fill="#222222" fill-opacity="1"><g transform="translate(186.907002, 197.224996)"><g><path d="M 10.25 -24.859375 L 10.25 -18.609375 L 20.328125 -18.609375 L 20.328125 -12.796875 L 10.25 -12.796875 L 10.25 -6.03125 L 21.640625 -6.03125 L 21.640625 0 L 2.734375 0 L 2.734375 -30.890625 L 21.640625 -30.890625 L 21.640625 -24.859375 Z M 10.25 -24.859375 "/></g></g></g><g fill="#222222" fill-opacity="1"><g transform="translate(211.146754, 197.224996)"><g><path d="M 2.15625 -5.71875 L 2.15625 -11.796875 L 16.0625 -31.6875 L 24.46875 -31.6875 L 24.46875 -12.234375 L 28.078125 -12.234375 L 28.078125 -5.71875 L 24.46875 -5.71875 L 24.46875 0 L 16.9375 0 L 16.9375 -5.71875 Z M 17.46875 -23.40625 L 10.078125 -12.234375 L 17.46875 -12.234375 Z M 17.46875 -23.40625 "/></g></g></g><g fill="#222222" fill-opacity="1"><g transform="translate(241.369432, 197.224996)"><g><path d="M 24.953125 -30.890625 L 24.953125 -24.859375 L 16.765625 -24.859375 L 16.765625 0 L 9.234375 0 L 9.234375 -24.859375 L 1.0625 -24.859375 L 1.0625 -30.890625 Z M 24.953125 -30.890625 "/></g></g></g><g fill="#222222" fill-opacity="1"><g transform="translate(267.808784, 197.224996)"><g><path d="M 21.953125 -5.453125 L 10.421875 -5.453125 L 8.578125 0 L 0.703125 0 L 11.875 -30.890625 L 20.59375 -30.890625 L 31.765625 0 L 23.796875 0 Z M 20.015625 -11.265625 L 16.1875 -22.578125 L 12.40625 -11.265625 Z M 20.015625 -11.265625 "/></g></g></g><g fill="#222222" fill-opacity="1"><g transform="translate(300.670995, 197.224996)"><g><path d="M 10.25 -30.890625 L 10.25 0 L 2.734375 0 L 2.734375 -30.890625 Z M 10.25 -30.890625 "/></g></g></g><g fill="#222222" fill-opacity="1"><g transform="translate(314.088688, 197.224996)"><g><path d="M 10.25 -5.8125 L 20.109375 -5.8125 L 20.109375 0 L 2.734375 0 L 2.734375 -30.890625 L 10.25 -30.890625 Z M 10.25 -5.8125 "/></g></g></g><g fill="#222222" fill-opacity="1"><g transform="translate(335.512942, 197.224996)"><g><path d="M 13.90625 0.3125 C 11.644531 0.3125 9.617188 -0.0507812 7.828125 -0.78125 C 6.035156 -1.519531 4.601562 -2.609375 3.53125 -4.046875 C 2.46875 -5.484375 1.90625 -7.210938 1.84375 -9.234375 L 9.859375 -9.234375 C 9.972656 -8.097656 10.367188 -7.226562 11.046875 -6.625 C 11.722656 -6.019531 12.601562 -5.71875 13.6875 -5.71875 C 14.800781 -5.71875 15.679688 -5.972656 16.328125 -6.484375 C 16.972656 -7.003906 17.296875 -7.71875 17.296875 -8.625 C 17.296875 -9.382812 17.035156 -10.015625 16.515625 -10.515625 C 16.003906 -11.015625 15.375 -11.425781 14.625 -11.75 C 13.882812 -12.070312 12.820312 -12.4375 11.4375 -12.84375 C 9.445312 -13.457031 7.816406 -14.070312 6.546875 -14.6875 C 5.285156 -15.3125 4.203125 -16.222656 3.296875 -17.421875 C 2.390625 -18.628906 1.9375 -20.195312 1.9375 -22.125 C 1.9375 -25 2.976562 -27.25 5.0625 -28.875 C 7.144531 -30.507812 9.859375 -31.328125 13.203125 -31.328125 C 16.597656 -31.328125 19.335938 -30.507812 21.421875 -28.875 C 23.503906 -27.25 24.617188 -24.988281 24.765625 -22.09375 L 16.625 -22.09375 C 16.570312 -23.082031 16.207031 -23.863281 15.53125 -24.4375 C 14.851562 -25.007812 13.988281 -25.296875 12.9375 -25.296875 C 12.03125 -25.296875 11.296875 -25.050781 10.734375 -24.5625 C 10.179688 -24.082031 9.90625 -23.390625 9.90625 -22.484375 C 9.90625 -21.484375 10.375 -20.703125 11.3125 -20.140625 C 12.25 -19.585938 13.710938 -18.988281 15.703125 -18.34375 C 17.703125 -17.675781 19.320312 -17.03125 20.5625 -16.40625 C 21.8125 -15.789062 22.890625 -14.894531 23.796875 -13.71875 C 24.710938 -12.550781 25.171875 -11.046875 25.171875 -9.203125 C 25.171875 -7.441406 24.722656 -5.84375 23.828125 -4.40625 C 22.929688 -2.96875 21.628906 -1.820312 19.921875 -0.96875 C 18.222656 -0.113281 16.21875 0.3125 13.90625 0.3125 Z M 13.90625 0.3125 "/></g></g></g><path stroke-linecap="round" transform="matrix(0, -0.75, 0.75, 0, 69.802589, 225.873633)" fill="none" stroke-linejoin="miter" d="M 0.498178 0.49759 L 87.565892 0.49759 " stroke="#b0b0b0" stroke-width="1" stroke-opacity="1" stroke-miterlimit="4"/><g fill="#555555" fill-opacity="1"><g transform="translate(81.696646, 220.314977)"><g><path d="M 1.03125 0.09375 C 0.882812 0.09375 0.765625 0.0625 0.671875 0 C 0.578125 -0.0703125 0.519531 -0.164062 0.5 -0.28125 C 0.488281 -0.40625 0.519531 -0.546875 0.59375 -0.703125 L 4.546875 -9.71875 C 4.640625 -9.914062 4.742188 -10.050781 4.859375 -10.125 C 4.984375 -10.207031 5.117188 -10.25 5.265625 -10.25 C 5.398438 -10.25 5.523438 -10.207031 5.640625 -10.125 C 5.765625 -10.050781 5.867188 -9.914062 5.953125 -9.71875 L 9.921875 -0.703125 C 10.003906 -0.546875 10.035156 -0.40625 10.015625 -0.28125 C 10.003906 -0.15625 9.953125 -0.0625 9.859375 0 C 9.773438 0.0625 9.660156 0.09375 9.515625 0.09375 C 9.335938 0.09375 9.195312 0.0507812 9.09375 -0.03125 C 8.988281 -0.125 8.898438 -0.257812 8.828125 -0.4375 L 7.765625 -2.890625 L 8.34375 -2.59375 L 2.140625 -2.59375 L 2.734375 -2.890625 L 1.6875 -0.4375 C 1.601562 -0.25 1.507812 -0.113281 1.40625 -0.03125 C 1.3125 0.0507812 1.1875 0.09375 1.03125 0.09375 Z M 5.25 -8.765625 L 2.921875 -3.3125 L 2.578125 -3.59375 L 7.90625 -3.59375 L 7.59375 -3.3125 L 5.265625 -8.765625 Z M 5.25 -8.765625 "/></g></g></g><g fill="#555555" fill-opacity="1"><g transform="translate(95.787386, 220.314977)"><g><path d="M 3.765625 0.125 C 3.140625 0.125 2.59375 -0.0195312 2.125 -0.3125 C 1.65625 -0.613281 1.289062 -1.035156 1.03125 -1.578125 C 0.78125 -2.117188 0.65625 -2.757812 0.65625 -3.5 C 0.65625 -4.25 0.78125 -4.894531 1.03125 -5.4375 C 1.289062 -5.976562 1.65625 -6.394531 2.125 -6.6875 C 2.59375 -6.976562 3.140625 -7.125 3.765625 -7.125 C 4.390625 -7.125 4.925781 -6.96875 5.375 -6.65625 C 5.832031 -6.34375 6.140625 -5.914062 6.296875 -5.375 L 6.140625 -5.375 L 6.140625 -9.671875 C 6.140625 -9.859375 6.1875 -10 6.28125 -10.09375 C 6.382812 -10.195312 6.535156 -10.25 6.734375 -10.25 C 6.910156 -10.25 7.046875 -10.195312 7.140625 -10.09375 C 7.242188 -10 7.296875 -9.859375 7.296875 -9.671875 L 7.296875 -0.5 C 7.296875 -0.3125 7.25 -0.164062 7.15625 -0.0625 C 7.0625 0.0390625 6.921875 0.09375 6.734375 0.09375 C 6.546875 0.09375 6.398438 0.0390625 6.296875 -0.0625 C 6.203125 -0.164062 6.15625 -0.3125 6.15625 -0.5 L 6.15625 -1.875 L 6.3125 -1.671875 C 6.15625 -1.117188 5.847656 -0.679688 5.390625 -0.359375 C 4.929688 -0.0351562 4.390625 0.125 3.765625 0.125 Z M 4 -0.8125 C 4.4375 -0.8125 4.816406 -0.914062 5.140625 -1.125 C 5.472656 -1.332031 5.726562 -1.640625 5.90625 -2.046875 C 6.082031 -2.453125 6.171875 -2.9375 6.171875 -3.5 C 6.171875 -4.375 5.972656 -5.039062 5.578125 -5.5 C 5.191406 -5.957031 4.664062 -6.1875 4 -6.1875 C 3.5625 -6.1875 3.179688 -6.082031 2.859375 -5.875 C 2.535156 -5.675781 2.285156 -5.375 2.109375 -4.96875 C 1.929688 -4.570312 1.84375 -4.082031 1.84375 -3.5 C 1.84375 -2.632812 2.039062 -1.96875 2.4375 -1.5 C 2.832031 -1.039062 3.351562 -0.8125 4 -0.8125 Z M 4 -0.8125 "/></g></g></g><g fill="#555555" fill-opacity="1"><g transform="translate(107.777094, 220.314977)"><g><path d="M 4 0.125 C 3.320312 0.125 2.734375 -0.0195312 2.234375 -0.3125 C 1.734375 -0.613281 1.34375 -1.035156 1.0625 -1.578125 C 0.789062 -2.117188 0.65625 -2.757812 0.65625 -3.5 C 0.65625 -4.0625 0.734375 -4.5625 0.890625 -5 C 1.046875 -5.445312 1.269531 -5.828125 1.5625 -6.140625 C 1.863281 -6.460938 2.21875 -6.707031 2.625 -6.875 C 3.03125 -7.039062 3.488281 -7.125 4 -7.125 C 4.6875 -7.125 5.28125 -6.972656 5.78125 -6.671875 C 6.28125 -6.378906 6.664062 -5.960938 6.9375 -5.421875 C 7.207031 -4.878906 7.34375 -4.238281 7.34375 -3.5 C 7.34375 -2.945312 7.265625 -2.445312 7.109375 -2 C 6.960938 -1.5625 6.738281 -1.179688 6.4375 -0.859375 C 6.144531 -0.535156 5.789062 -0.289062 5.375 -0.125 C 4.96875 0.0390625 4.507812 0.125 4 0.125 Z M 4 -0.8125 C 4.4375 -0.8125 4.816406 -0.914062 5.140625 -1.125 C 5.472656 -1.332031 5.726562 -1.640625 5.90625 -2.046875 C 6.082031 -2.453125 6.171875 -2.9375 6.171875 -3.5 C 6.171875 -4.375 5.972656 -5.039062 5.578125 -5.5 C 5.191406 -5.957031 4.664062 -6.1875 4 -6.1875 C 3.5625 -6.1875 3.179688 -6.082031 2.859375 -5.875 C 2.535156 -5.675781 2.285156 -5.375 2.109375 -4.96875 C 1.929688 -4.570312 1.84375 -4.082031 1.84375 -3.5 C 1.84375 -2.632812 2.039062 -1.96875 2.4375 -1.5 C 2.832031 -1.039062 3.351562 -0.8125 4 -0.8125 Z M 4 -0.8125 "/></g></g></g><g fill="#555555" fill-opacity="1"><g transform="translate(119.378264, 220.314977)"><g><path d="M 1.671875 2.6875 C 1.484375 2.6875 1.335938 2.632812 1.234375 2.53125 C 1.140625 2.4375 1.09375 2.296875 1.09375 2.109375 L 1.09375 -6.515625 C 1.09375 -6.703125 1.140625 -6.847656 1.234375 -6.953125 C 1.335938 -7.054688 1.476562 -7.109375 1.65625 -7.109375 C 1.84375 -7.109375 1.988281 -7.054688 2.09375 -6.953125 C 2.195312 -6.847656 2.25 -6.703125 2.25 -6.515625 L 2.25 -5.140625 L 2.09375 -5.34375 C 2.238281 -5.894531 2.539062 -6.328125 3 -6.640625 C 3.457031 -6.960938 4.003906 -7.125 4.640625 -7.125 C 5.265625 -7.125 5.804688 -6.976562 6.265625 -6.6875 C 6.734375 -6.394531 7.09375 -5.976562 7.34375 -5.4375 C 7.601562 -4.894531 7.734375 -4.25 7.734375 -3.5 C 7.734375 -2.757812 7.601562 -2.117188 7.34375 -1.578125 C 7.09375 -1.035156 6.738281 -0.613281 6.28125 -0.3125 C 5.820312 -0.0195312 5.273438 0.125 4.640625 0.125 C 4.003906 0.125 3.457031 -0.03125 3 -0.34375 C 2.550781 -0.664062 2.25 -1.097656 2.09375 -1.640625 L 2.265625 -1.640625 L 2.265625 2.109375 C 2.265625 2.296875 2.207031 2.4375 2.09375 2.53125 C 1.988281 2.632812 1.847656 2.6875 1.671875 2.6875 Z M 4.390625 -0.8125 C 4.835938 -0.8125 5.21875 -0.914062 5.53125 -1.125 C 5.851562 -1.332031 6.101562 -1.640625 6.28125 -2.046875 C 6.46875 -2.453125 6.5625 -2.9375 6.5625 -3.5 C 6.5625 -4.375 6.363281 -5.039062 5.96875 -5.5 C 5.582031 -5.957031 5.054688 -6.1875 4.390625 -6.1875 C 3.960938 -6.1875 3.582031 -6.082031 3.25 -5.875 C 2.925781 -5.675781 2.675781 -5.375 2.5 -4.96875 C 2.320312 -4.570312 2.234375 -4.082031 2.234375 -3.5 C 2.234375 -2.632812 2.429688 -1.96875 2.828125 -1.5 C 3.222656 -1.039062 3.742188 -0.8125 4.390625 -0.8125 Z M 4.390625 -0.8125 "/></g></g></g><g fill="#555555" fill-opacity="1"><g transform="translate(131.367972, 220.314977)"><g><path d="M 3.90625 0.125 C 3.351562 0.125 2.890625 0.0234375 2.515625 -0.171875 C 2.148438 -0.367188 1.875 -0.65625 1.6875 -1.03125 C 1.507812 -1.40625 1.421875 -1.867188 1.421875 -2.421875 L 1.421875 -6.09375 L 0.46875 -6.09375 C 0.300781 -6.09375 0.171875 -6.132812 0.078125 -6.21875 C -0.00390625 -6.300781 -0.046875 -6.414062 -0.046875 -6.5625 C -0.046875 -6.695312 -0.00390625 -6.800781 0.078125 -6.875 C 0.171875 -6.957031 0.300781 -7 0.46875 -7 L 1.421875 -7 L 1.421875 -8.65625 C 1.421875 -8.851562 1.472656 -9 1.578125 -9.09375 C 1.691406 -9.195312 1.835938 -9.25 2.015625 -9.25 C 2.203125 -9.25 2.34375 -9.195312 2.4375 -9.09375 C 2.539062 -9 2.59375 -8.851562 2.59375 -8.65625 L 2.59375 -7 L 4.40625 -7 C 4.570312 -7 4.695312 -6.957031 4.78125 -6.875 C 4.863281 -6.800781 4.90625 -6.695312 4.90625 -6.5625 C 4.90625 -6.414062 4.863281 -6.300781 4.78125 -6.21875 C 4.695312 -6.132812 4.570312 -6.09375 4.40625 -6.09375 L 2.59375 -6.09375 L 2.59375 -2.53125 C 2.59375 -1.988281 2.707031 -1.570312 2.9375 -1.28125 C 3.164062 -1 3.539062 -0.859375 4.0625 -0.859375 C 4.25 -0.859375 4.40625 -0.878906 4.53125 -0.921875 C 4.65625 -0.960938 4.765625 -0.984375 4.859375 -0.984375 C 4.941406 -0.992188 5.007812 -0.960938 5.0625 -0.890625 C 5.125 -0.828125 5.15625 -0.710938 5.15625 -0.546875 C 5.15625 -0.429688 5.132812 -0.328125 5.09375 -0.234375 C 5.050781 -0.140625 4.976562 -0.0703125 4.875 -0.03125 C 4.757812 0.0078125 4.609375 0.046875 4.421875 0.078125 C 4.234375 0.109375 4.0625 0.125 3.90625 0.125 Z M 3.90625 0.125 "/></g></g></g><g fill="#555555" fill-opacity="1"><g transform="translate(140.004679, 220.314977)"><g><path d="M 1.65625 0.0625 C 1.414062 0.0625 1.222656 -0.0078125 1.078125 -0.15625 C 0.929688 -0.3125 0.859375 -0.503906 0.859375 -0.734375 C 0.859375 -0.960938 0.929688 -1.148438 1.078125 -1.296875 C 1.222656 -1.453125 1.414062 -1.53125 1.65625 -1.53125 C 1.894531 -1.53125 2.082031 -1.453125 2.21875 -1.296875 C 2.363281 -1.148438 2.4375 -0.960938 2.4375 -0.734375 C 2.4375 -0.503906 2.363281 -0.3125 2.21875 -0.15625 C 2.082031 -0.0078125 1.894531 0.0625 1.65625 0.0625 Z M 1.65625 0.0625 "/></g></g></g><g fill="#555555" fill-opacity="1"><g transform="translate(146.885736, 220.314977)"><g/></g></g><g fill="#555555" fill-opacity="1"><g transform="translate(154.19851, 220.314977)"><g><path d="M 1.859375 0 C 1.660156 0 1.507812 -0.0507812 1.40625 -0.15625 C 1.300781 -0.269531 1.25 -0.425781 1.25 -0.625 L 1.25 -9.609375 C 1.25 -9.804688 1.300781 -9.957031 1.40625 -10.0625 C 1.507812 -10.175781 1.65625 -10.234375 1.84375 -10.234375 C 2.03125 -10.234375 2.175781 -10.175781 2.28125 -10.0625 C 2.382812 -9.957031 2.4375 -9.804688 2.4375 -9.609375 L 2.4375 -1.03125 L 7.15625 -1.03125 C 7.332031 -1.03125 7.46875 -0.984375 7.5625 -0.890625 C 7.65625 -0.804688 7.703125 -0.679688 7.703125 -0.515625 C 7.703125 -0.359375 7.65625 -0.234375 7.5625 -0.140625 C 7.46875 -0.046875 7.332031 0 7.15625 0 Z M 1.859375 0 "/></g></g></g><g fill="#555555" fill-opacity="1"><g transform="translate(165.612606, 220.314977)"><g><path d="M 4 0.125 C 3.320312 0.125 2.734375 -0.0195312 2.234375 -0.3125 C 1.734375 -0.613281 1.34375 -1.035156 1.0625 -1.578125 C 0.789062 -2.117188 0.65625 -2.757812 0.65625 -3.5 C 0.65625 -4.0625 0.734375 -4.5625 0.890625 -5 C 1.046875 -5.445312 1.269531 -5.828125 1.5625 -6.140625 C 1.863281 -6.460938 2.21875 -6.707031 2.625 -6.875 C 3.03125 -7.039062 3.488281 -7.125 4 -7.125 C 4.6875 -7.125 5.28125 -6.972656 5.78125 -6.671875 C 6.28125 -6.378906 6.664062 -5.960938 6.9375 -5.421875 C 7.207031 -4.878906 7.34375 -4.238281 7.34375 -3.5 C 7.34375 -2.945312 7.265625 -2.445312 7.109375 -2 C 6.960938 -1.5625 6.738281 -1.179688 6.4375 -0.859375 C 6.144531 -0.535156 5.789062 -0.289062 5.375 -0.125 C 4.96875 0.0390625 4.507812 0.125 4 0.125 Z M 4 -0.8125 C 4.4375 -0.8125 4.816406 -0.914062 5.140625 -1.125 C 5.472656 -1.332031 5.726562 -1.640625 5.90625 -2.046875 C 6.082031 -2.453125 6.171875 -2.9375 6.171875 -3.5 C 6.171875 -4.375 5.972656 -5.039062 5.578125 -5.5 C 5.191406 -5.957031 4.664062 -6.1875 4 -6.1875 C 3.5625 -6.1875 3.179688 -6.082031 2.859375 -5.875 C 2.535156 -5.675781 2.285156 -5.375 2.109375 -4.96875 C 1.929688 -4.570312 1.84375 -4.082031 1.84375 -3.5 C 1.84375 -2.632812 2.039062 -1.96875 2.4375 -1.5 C 2.832031 -1.039062 3.351562 -0.8125 4 -0.8125 Z M 4 -0.8125 "/></g></g></g><g fill="#555555" fill-opacity="1"><g transform="translate(177.213779, 220.314977)"><g><path d="M 3.703125 0.09375 C 3.535156 0.09375 3.390625 0.0507812 3.265625 -0.03125 C 3.140625 -0.125 3.035156 -0.269531 2.953125 -0.46875 L 0.46875 -6.28125 C 0.394531 -6.425781 0.367188 -6.5625 0.390625 -6.6875 C 0.410156 -6.8125 0.46875 -6.910156 0.5625 -6.984375 C 0.65625 -7.066406 0.789062 -7.109375 0.96875 -7.109375 C 1.125 -7.109375 1.242188 -7.070312 1.328125 -7 C 1.410156 -6.9375 1.488281 -6.816406 1.5625 -6.640625 L 3.921875 -0.859375 L 3.53125 -0.859375 L 5.9375 -6.640625 C 6 -6.816406 6.070312 -6.9375 6.15625 -7 C 6.25 -7.070312 6.378906 -7.109375 6.546875 -7.109375 C 6.691406 -7.109375 6.804688 -7.066406 6.890625 -6.984375 C 6.972656 -6.910156 7.019531 -6.8125 7.03125 -6.6875 C 7.050781 -6.570312 7.03125 -6.441406 6.96875 -6.296875 L 4.453125 -0.46875 C 4.378906 -0.269531 4.28125 -0.125 4.15625 -0.03125 C 4.03125 0.0507812 3.878906 0.09375 3.703125 0.09375 Z M 3.703125 0.09375 "/></g></g></g><g fill="#555555" fill-opacity="1"><g transform="translate(188.224929, 220.314977)"><g><path d="M 4.25 0.125 C 3.507812 0.125 2.875 -0.0195312 2.34375 -0.3125 C 1.8125 -0.601562 1.394531 -1.015625 1.09375 -1.546875 C 0.800781 -2.085938 0.65625 -2.734375 0.65625 -3.484375 C 0.65625 -4.210938 0.800781 -4.847656 1.09375 -5.390625 C 1.382812 -5.929688 1.78125 -6.351562 2.28125 -6.65625 C 2.789062 -6.96875 3.375 -7.125 4.03125 -7.125 C 4.5 -7.125 4.921875 -7.046875 5.296875 -6.890625 C 5.671875 -6.734375 5.988281 -6.503906 6.25 -6.203125 C 6.519531 -5.910156 6.722656 -5.550781 6.859375 -5.125 C 7.003906 -4.707031 7.078125 -4.234375 7.078125 -3.703125 C 7.078125 -3.546875 7.03125 -3.429688 6.9375 -3.359375 C 6.851562 -3.285156 6.726562 -3.25 6.5625 -3.25 L 1.5625 -3.25 L 1.5625 -4.015625 L 6.296875 -4.015625 L 6.0625 -3.828125 C 6.0625 -4.347656 5.984375 -4.785156 5.828125 -5.140625 C 5.679688 -5.503906 5.457031 -5.78125 5.15625 -5.96875 C 4.863281 -6.164062 4.5 -6.265625 4.0625 -6.265625 C 3.570312 -6.265625 3.15625 -6.148438 2.8125 -5.921875 C 2.476562 -5.703125 2.222656 -5.390625 2.046875 -4.984375 C 1.867188 -4.585938 1.78125 -4.125 1.78125 -3.59375 L 1.78125 -3.515625 C 1.78125 -2.628906 1.992188 -1.957031 2.421875 -1.5 C 2.847656 -1.039062 3.457031 -0.8125 4.25 -0.8125 C 4.570312 -0.8125 4.894531 -0.851562 5.21875 -0.9375 C 5.539062 -1.019531 5.859375 -1.164062 6.171875 -1.375 C 6.304688 -1.457031 6.425781 -1.492188 6.53125 -1.484375 C 6.644531 -1.484375 6.734375 -1.453125 6.796875 -1.390625 C 6.867188 -1.328125 6.914062 -1.25 6.9375 -1.15625 C 6.957031 -1.0625 6.945312 -0.960938 6.90625 -0.859375 C 6.863281 -0.753906 6.78125 -0.664062 6.65625 -0.59375 C 6.34375 -0.363281 5.96875 -0.1875 5.53125 -0.0625 C 5.101562 0.0625 4.675781 0.125 4.25 0.125 Z M 4.25 0.125 "/></g></g></g><g fill="#555555" fill-opacity="1"><g transform="translate(199.480719, 220.314977)"><g><path d="M 1.65625 0.0625 C 1.414062 0.0625 1.222656 -0.0078125 1.078125 -0.15625 C 0.929688 -0.3125 0.859375 -0.503906 0.859375 -0.734375 C 0.859375 -0.960938 0.929688 -1.148438 1.078125 -1.296875 C 1.222656 -1.453125 1.414062 -1.53125 1.65625 -1.53125 C 1.894531 -1.53125 2.082031 -1.453125 2.21875 -1.296875 C 2.363281 -1.148438 2.4375 -0.960938 2.4375 -0.734375 C 2.4375 -0.503906 2.363281 -0.3125 2.21875 -0.15625 C 2.082031 -0.0078125 1.894531 0.0625 1.65625 0.0625 Z M 1.65625 0.0625 "/></g></g></g><g fill="#555555" fill-opacity="1"><g transform="translate(206.361776, 220.314977)"><g/></g></g><g fill="#555555" fill-opacity="1"><g transform="translate(213.67455, 220.314977)"><g><path d="M 1.90625 0 C 1.6875 0 1.519531 -0.0507812 1.40625 -0.15625 C 1.300781 -0.269531 1.25 -0.429688 1.25 -0.640625 L 1.25 -9.515625 C 1.25 -9.722656 1.300781 -9.878906 1.40625 -9.984375 C 1.519531 -10.097656 1.6875 -10.15625 1.90625 -10.15625 L 4.6875 -10.15625 C 6.320312 -10.15625 7.585938 -9.722656 8.484375 -8.859375 C 9.378906 -7.992188 9.828125 -6.734375 9.828125 -5.078125 C 9.828125 -4.253906 9.710938 -3.523438 9.484375 -2.890625 C 9.253906 -2.265625 8.921875 -1.734375 8.484375 -1.296875 C 8.046875 -0.867188 7.507812 -0.546875 6.875 -0.328125 C 6.238281 -0.109375 5.507812 0 4.6875 0 Z M 2.4375 -1.015625 L 4.59375 -1.015625 C 5.269531 -1.015625 5.851562 -1.097656 6.34375 -1.265625 C 6.84375 -1.441406 7.253906 -1.695312 7.578125 -2.03125 C 7.910156 -2.363281 8.160156 -2.785156 8.328125 -3.296875 C 8.492188 -3.816406 8.578125 -4.410156 8.578125 -5.078125 C 8.578125 -6.429688 8.242188 -7.445312 7.578125 -8.125 C 6.910156 -8.800781 5.914062 -9.140625 4.59375 -9.140625 L 2.4375 -9.140625 Z M 2.4375 -1.015625 "/></g></g></g><g fill="#555555" fill-opacity="1"><g transform="translate(227.95237, 220.314977)"><g><path d="M 4 0.125 C 3.320312 0.125 2.734375 -0.0195312 2.234375 -0.3125 C 1.734375 -0.613281 1.34375 -1.035156 1.0625 -1.578125 C 0.789062 -2.117188 0.65625 -2.757812 0.65625 -3.5 C 0.65625 -4.0625 0.734375 -4.5625 0.890625 -5 C 1.046875 -5.445312 1.269531 -5.828125 1.5625 -6.140625 C 1.863281 -6.460938 2.21875 -6.707031 2.625 -6.875 C 3.03125 -7.039062 3.488281 -7.125 4 -7.125 C 4.6875 -7.125 5.28125 -6.972656 5.78125 -6.671875 C 6.28125 -6.378906 6.664062 -5.960938 6.9375 -5.421875 C 7.207031 -4.878906 7.34375 -4.238281 7.34375 -3.5 C 7.34375 -2.945312 7.265625 -2.445312 7.109375 -2 C 6.960938 -1.5625 6.738281 -1.179688 6.4375 -0.859375 C 6.144531 -0.535156 5.789062 -0.289062 5.375 -0.125 C 4.96875 0.0390625 4.507812 0.125 4 0.125 Z M 4 -0.8125 C 4.4375 -0.8125 4.816406 -0.914062 5.140625 -1.125 C 5.472656 -1.332031 5.726562 -1.640625 5.90625 -2.046875 C 6.082031 -2.453125 6.171875 -2.9375 6.171875 -3.5 C 6.171875 -4.375 5.972656 -5.039062 5.578125 -5.5 C 5.191406 -5.957031 4.664062 -6.1875 4 -6.1875 C 3.5625 -6.1875 3.179688 -6.082031 2.859375 -5.875 C 2.535156 -5.675781 2.285156 -5.375 2.109375 -4.96875 C 1.929688 -4.570312 1.84375 -4.082031 1.84375 -3.5 C 1.84375 -2.632812 2.039062 -1.96875 2.4375 -1.5 C 2.832031 -1.039062 3.351562 -0.8125 4 -0.8125 Z M 4 -0.8125 "/></g></g></g><g fill="#555555" fill-opacity="1"><g transform="translate(239.553542, 220.314977)"><g><path d="M 1.671875 0.09375 C 1.484375 0.09375 1.335938 0.0390625 1.234375 -0.0625 C 1.140625 -0.164062 1.09375 -0.3125 1.09375 -0.5 L 1.09375 -6.515625 C 1.09375 -6.703125 1.140625 -6.847656 1.234375 -6.953125 C 1.335938 -7.054688 1.476562 -7.109375 1.65625 -7.109375 C 1.84375 -7.109375 1.984375 -7.054688 2.078125 -6.953125 C 2.179688 -6.847656 2.234375 -6.703125 2.234375 -6.515625 L 2.234375 -5.265625 L 2.078125 -5.453125 C 2.273438 -6.003906 2.601562 -6.421875 3.0625 -6.703125 C 3.519531 -6.984375 4.046875 -7.125 4.640625 -7.125 C 5.191406 -7.125 5.648438 -7.023438 6.015625 -6.828125 C 6.390625 -6.628906 6.664062 -6.320312 6.84375 -5.90625 C 7.03125 -5.5 7.125 -4.984375 7.125 -4.359375 L 7.125 -0.5 C 7.125 -0.3125 7.070312 -0.164062 6.96875 -0.0625 C 6.875 0.0390625 6.738281 0.09375 6.5625 0.09375 C 6.363281 0.09375 6.210938 0.0390625 6.109375 -0.0625 C 6.015625 -0.164062 5.96875 -0.3125 5.96875 -0.5 L 5.96875 -4.296875 C 5.96875 -4.941406 5.835938 -5.414062 5.578125 -5.71875 C 5.328125 -6.03125 4.921875 -6.1875 4.359375 -6.1875 C 3.722656 -6.1875 3.210938 -5.984375 2.828125 -5.578125 C 2.453125 -5.179688 2.265625 -4.648438 2.265625 -3.984375 L 2.265625 -0.5 C 2.265625 -0.101562 2.066406 0.09375 1.671875 0.09375 Z M 1.671875 0.09375 "/></g></g></g><g fill="#555555" fill-opacity="1"><g transform="translate(251.327395, 220.314977)"><g><path d="M 3.296875 0.125 C 2.816406 0.125 2.382812 0.03125 2 -0.15625 C 1.625 -0.34375 1.328125 -0.597656 1.109375 -0.921875 C 0.890625 -1.242188 0.78125 -1.609375 0.78125 -2.015625 C 0.78125 -2.535156 0.910156 -2.941406 1.171875 -3.234375 C 1.429688 -3.535156 1.867188 -3.75 2.484375 -3.875 C 3.097656 -4 3.929688 -4.0625 4.984375 -4.0625 L 5.640625 -4.0625 L 5.640625 -3.296875 L 5 -3.296875 C 4.21875 -3.296875 3.601562 -3.257812 3.15625 -3.1875 C 2.71875 -3.113281 2.40625 -2.988281 2.21875 -2.8125 C 2.039062 -2.644531 1.953125 -2.40625 1.953125 -2.09375 C 1.953125 -1.695312 2.085938 -1.375 2.359375 -1.125 C 2.640625 -0.875 3.015625 -0.75 3.484375 -0.75 C 3.867188 -0.75 4.207031 -0.835938 4.5 -1.015625 C 4.789062 -1.203125 5.019531 -1.453125 5.1875 -1.765625 C 5.363281 -2.085938 5.453125 -2.453125 5.453125 -2.859375 L 5.453125 -4.515625 C 5.453125 -5.109375 5.328125 -5.535156 5.078125 -5.796875 C 4.835938 -6.054688 4.445312 -6.1875 3.90625 -6.1875 C 3.570312 -6.1875 3.234375 -6.144531 2.890625 -6.0625 C 2.554688 -5.976562 2.203125 -5.835938 1.828125 -5.640625 C 1.691406 -5.578125 1.578125 -5.554688 1.484375 -5.578125 C 1.390625 -5.609375 1.3125 -5.660156 1.25 -5.734375 C 1.195312 -5.804688 1.164062 -5.894531 1.15625 -6 C 1.144531 -6.101562 1.164062 -6.203125 1.21875 -6.296875 C 1.269531 -6.390625 1.351562 -6.46875 1.46875 -6.53125 C 1.894531 -6.738281 2.3125 -6.890625 2.71875 -6.984375 C 3.132812 -7.078125 3.53125 -7.125 3.90625 -7.125 C 4.507812 -7.125 5.007812 -7.023438 5.40625 -6.828125 C 5.800781 -6.640625 6.09375 -6.34375 6.28125 -5.9375 C 6.46875 -5.539062 6.5625 -5.03125 6.5625 -4.40625 L 6.5625 -0.5 C 6.5625 -0.3125 6.515625 -0.164062 6.421875 -0.0625 C 6.335938 0.0390625 6.207031 0.09375 6.03125 0.09375 C 5.851562 0.09375 5.710938 0.0390625 5.609375 -0.0625 C 5.515625 -0.164062 5.46875 -0.3125 5.46875 -0.5 L 5.46875 -1.625 L 5.609375 -1.625 C 5.523438 -1.257812 5.375 -0.945312 5.15625 -0.6875 C 4.945312 -0.425781 4.679688 -0.222656 4.359375 -0.078125 C 4.046875 0.0546875 3.691406 0.125 3.296875 0.125 Z M 3.296875 0.125 "/></g></g></g><g fill="#555555" fill-opacity="1"><g transform="translate(262.554403, 220.314977)"><g><path d="M 3.90625 0.125 C 3.351562 0.125 2.890625 0.0234375 2.515625 -0.171875 C 2.148438 -0.367188 1.875 -0.65625 1.6875 -1.03125 C 1.507812 -1.40625 1.421875 -1.867188 1.421875 -2.421875 L 1.421875 -6.09375 L 0.46875 -6.09375 C 0.300781 -6.09375 0.171875 -6.132812 0.078125 -6.21875 C -0.00390625 -6.300781 -0.046875 -6.414062 -0.046875 -6.5625 C -0.046875 -6.695312 -0.00390625 -6.800781 0.078125 -6.875 C 0.171875 -6.957031 0.300781 -7 0.46875 -7 L 1.421875 -7 L 1.421875 -8.65625 C 1.421875 -8.851562 1.472656 -9 1.578125 -9.09375 C 1.691406 -9.195312 1.835938 -9.25 2.015625 -9.25 C 2.203125 -9.25 2.34375 -9.195312 2.4375 -9.09375 C 2.539062 -9 2.59375 -8.851562 2.59375 -8.65625 L 2.59375 -7 L 4.40625 -7 C 4.570312 -7 4.695312 -6.957031 4.78125 -6.875 C 4.863281 -6.800781 4.90625 -6.695312 4.90625 -6.5625 C 4.90625 -6.414062 4.863281 -6.300781 4.78125 -6.21875 C 4.695312 -6.132812 4.570312 -6.09375 4.40625 -6.09375 L 2.59375 -6.09375 L 2.59375 -2.53125 C 2.59375 -1.988281 2.707031 -1.570312 2.9375 -1.28125 C 3.164062 -1 3.539062 -0.859375 4.0625 -0.859375 C 4.25 -0.859375 4.40625 -0.878906 4.53125 -0.921875 C 4.65625 -0.960938 4.765625 -0.984375 4.859375 -0.984375 C 4.941406 -0.992188 5.007812 -0.960938 5.0625 -0.890625 C 5.125 -0.828125 5.15625 -0.710938 5.15625 -0.546875 C 5.15625 -0.429688 5.132812 -0.328125 5.09375 -0.234375 C 5.050781 -0.140625 4.976562 -0.0703125 4.875 -0.03125 C 4.757812 0.0078125 4.609375 0.046875 4.421875 0.078125 C 4.234375 0.109375 4.0625 0.125 3.90625 0.125 Z M 3.90625 0.125 "/></g></g></g><g fill="#555555" fill-opacity="1"><g transform="translate(271.19111, 220.314977)"><g><path d="M 4.25 0.125 C 3.507812 0.125 2.875 -0.0195312 2.34375 -0.3125 C 1.8125 -0.601562 1.394531 -1.015625 1.09375 -1.546875 C 0.800781 -2.085938 0.65625 -2.734375 0.65625 -3.484375 C 0.65625 -4.210938 0.800781 -4.847656 1.09375 -5.390625 C 1.382812 -5.929688 1.78125 -6.351562 2.28125 -6.65625 C 2.789062 -6.96875 3.375 -7.125 4.03125 -7.125 C 4.5 -7.125 4.921875 -7.046875 5.296875 -6.890625 C 5.671875 -6.734375 5.988281 -6.503906 6.25 -6.203125 C 6.519531 -5.910156 6.722656 -5.550781 6.859375 -5.125 C 7.003906 -4.707031 7.078125 -4.234375 7.078125 -3.703125 C 7.078125 -3.546875 7.03125 -3.429688 6.9375 -3.359375 C 6.851562 -3.285156 6.726562 -3.25 6.5625 -3.25 L 1.5625 -3.25 L 1.5625 -4.015625 L 6.296875 -4.015625 L 6.0625 -3.828125 C 6.0625 -4.347656 5.984375 -4.785156 5.828125 -5.140625 C 5.679688 -5.503906 5.457031 -5.78125 5.15625 -5.96875 C 4.863281 -6.164062 4.5 -6.265625 4.0625 -6.265625 C 3.570312 -6.265625 3.15625 -6.148438 2.8125 -5.921875 C 2.476562 -5.703125 2.222656 -5.390625 2.046875 -4.984375 C 1.867188 -4.585938 1.78125 -4.125 1.78125 -3.59375 L 1.78125 -3.515625 C 1.78125 -2.628906 1.992188 -1.957031 2.421875 -1.5 C 2.847656 -1.039062 3.457031 -0.8125 4.25 -0.8125 C 4.570312 -0.8125 4.894531 -0.851562 5.21875 -0.9375 C 5.539062 -1.019531 5.859375 -1.164062 6.171875 -1.375 C 6.304688 -1.457031 6.425781 -1.492188 6.53125 -1.484375 C 6.644531 -1.484375 6.734375 -1.453125 6.796875 -1.390625 C 6.867188 -1.328125 6.914062 -1.25 6.9375 -1.15625 C 6.957031 -1.0625 6.945312 -0.960938 6.90625 -0.859375 C 6.863281 -0.753906 6.78125 -0.664062 6.65625 -0.59375 C 6.34375 -0.363281 5.96875 -0.1875 5.53125 -0.0625 C 5.101562 0.0625 4.675781 0.125 4.25 0.125 Z M 4.25 0.125 "/></g></g></g><g fill="#555555" fill-opacity="1"><g transform="translate(282.4469, 220.314977)"><g><path d="M 1.65625 0.0625 C 1.414062 0.0625 1.222656 -0.0078125 1.078125 -0.15625 C 0.929688 -0.3125 0.859375 -0.503906 0.859375 -0.734375 C 0.859375 -0.960938 0.929688 -1.148438 1.078125 -1.296875 C 1.222656 -1.453125 1.414062 -1.53125 1.65625 -1.53125 C 1.894531 -1.53125 2.082031 -1.453125 2.21875 -1.296875 C 2.363281 -1.148438 2.4375 -0.960938 2.4375 -0.734375 C 2.4375 -0.503906 2.363281 -0.3125 2.21875 -0.15625 C 2.082031 -0.0078125 1.894531 0.0625 1.65625 0.0625 Z M 1.65625 0.0625 "/></g></g></g></svg>